# Blender v3.2.0 OBJ File: 'castlePillar.blend'
# www.blender.org
mtllib castlePillar.mtl
o 立方体.004
v -4.729905 22.600254 4.729905
v -6.000000 17.816174 6.000000
v -4.729905 22.600254 -4.729905
v -6.000000 17.816174 -6.000000
v 4.729905 22.600254 4.729905
v 6.000000 17.816174 6.000000
v 4.729905 22.600254 -4.729905
v 6.000000 17.816174 -6.000000
v -4.919643 -22.600254 4.919643
v -6.000000 -18.530865 6.000000
v -6.000000 -18.530865 -6.000000
v -4.919643 -22.600254 -4.919643
v 6.000000 -18.530865 6.000000
v 4.919643 -22.600254 4.919643
v 6.000000 -18.530865 -6.000000
v 4.919643 -22.600254 -4.919643
vt 0.284764 0.968775
vt 0.543497 0.772341
vt 0.512347 0.999925
vt 0.160458 0.004306
vt 0.228992 0.314305
vt 0.000075 0.213508
vt 0.563844 0.723597
vt 0.293371 0.707047
vt 0.403461 0.516484
vt 0.333799 0.205918
vt 0.334681 0.784519
vt 0.355291 0.810122
vt 0.358402 0.174152
vt 0.213029 0.000075
vt 0.552428 0.249717
vt 0.069029 0.774895
vt 0.275556 0.684692
vt 0.083948 0.734083
vt 0.009572 0.261297
vt 0.208152 0.341254
vt 0.359091 0.520266
vt 0.100150 0.466187
vt 0.563844 0.306160
vt 0.233213 0.974968
vn 0.0000 1.0000 0.0000
vn 0.0000 0.0000 -1.0000
vn 0.0000 0.0000 1.0000
vn 1.0000 0.0000 0.0000
vn -0.9665 0.2566 0.0000
vn 0.0000 0.2566 -0.9665
vn 0.9665 0.2566 0.0000
vn 0.0000 0.2566 0.9665
vn -1.0000 0.0000 0.0000
vn -0.9665 -0.2566 0.0000
vn 0.0000 -0.2566 -0.9665
vn 0.9665 -0.2566 0.0000
vn 0.0000 -0.2566 0.9665
vn 0.0000 -1.0000 0.0000
usemtl マテリアル
s off
f 3/1/1 5/2/1 7/3/1
f 4/4/2 15/5/2 11/6/2
f 6/7/3 10/8/3 13/9/3
f 8/10/4 13/9/4 15/5/4
f 3/1/5 2/11/5 1/12/5
f 7/13/6 4/4/6 3/14/6
f 5/15/7 8/10/7 7/13/7
f 1/12/8 6/7/8 5/2/8
f 2/11/9 11/16/9 10/8/9
f 9/17/10 11/16/10 12/18/10
f 12/19/11 15/5/11 16/20/11
f 16/20/12 13/9/12 14/21/12
f 14/21/13 10/8/13 9/17/13
f 16/22/14 9/17/14 12/18/14
f 3/1/1 1/12/1 5/2/1
f 4/4/2 8/10/2 15/5/2
f 6/7/3 2/11/3 10/8/3
f 8/10/4 6/23/4 13/9/4
f 3/1/5 4/24/5 2/11/5
f 7/13/6 8/10/6 4/4/6
f 5/15/7 6/23/7 8/10/7
f 1/12/8 2/11/8 6/7/8
f 2/11/9 4/24/9 11/16/9
f 9/17/10 10/8/10 11/16/10
f 12/19/11 11/6/11 15/5/11
f 16/20/12 15/5/12 13/9/12
f 14/21/13 13/9/13 10/8/13
f 16/22/14 14/21/14 9/17/14
