# Blender v3.2.0 OBJ File: 'painting.blend'
# www.blender.org
mtllib painting.mtl
o 立方体_立方体.002
v 3.000000 -2.474233 0.282792
v 2.539874 3.000000 0.282792
v -3.000000 -2.463178 0.282793
v -3.000000 2.486625 0.282793
v 3.000000 -2.474233 -0.282793
v 2.539874 3.000000 -0.282793
v -3.000000 -2.455723 -0.282792
v -3.000000 2.486625 -0.282792
v 2.548941 -3.000000 0.282792
v 2.548941 -3.000000 -0.282793
v -2.500066 3.000000 0.282793
v -2.500066 -3.000000 -0.282792
v -2.500066 -3.000000 0.282793
v -2.500066 3.000000 -0.282792
v 3.000000 2.482145 0.282792
v 3.000000 2.482145 -0.282793
v 2.548941 2.482145 -0.192848
v 2.548941 2.482145 0.172441
v -2.500066 2.482145 -0.192847
v -2.500066 2.482145 0.172441
v 2.548941 -2.490668 -0.192848
v 2.548941 -2.490668 0.172441
v -2.500066 -2.490668 -0.192847
v -2.500066 -2.490668 0.172441
vt 0.383131 0.625593
vt 0.412269 0.625199
vt 0.407409 0.646763
vt 0.606128 0.362540
vt 0.561572 0.411480
vt 0.546269 0.387926
vt 0.359339 0.485010
vt 0.364132 0.250558
vt 0.211077 0.441673
vt 0.174759 0.466329
vt 0.616588 0.646910
vt 0.285674 0.018428
vt 0.000083 0.226005
vt 0.687918 0.665914
vt 0.372303 0.501616
vt 0.344068 0.512967
vt 0.614215 0.676686
vt 0.267710 0.734442
vt 0.511889 0.999917
vt 0.207543 0.744782
vt 0.261300 0.666096
vt 0.221892 0.554603
vt 0.532438 0.954563
vt 0.592886 0.992863
vt 0.687918 0.025442
vt 0.406864 0.236223
vt 0.345117 0.000083
vt 0.385355 0.272491
vn 0.2093 -0.2038 0.9564
vn -0.1927 -0.1712 -0.9662
vn 0.7475 0.6642 0.0000
vn 0.7590 -0.6511 0.0000
vn 0.0000 1.0000 0.0000
vn 0.0000 -1.0000 0.0000
vn -0.0000 -0.1711 -0.9852
vn -0.2325 -0.2066 0.9504
vn 0.1731 -0.1685 -0.9704
vn -0.7318 -0.6815 0.0000
vn -0.7164 0.6977 0.0000
vn 0.0000 -0.2084 0.9780
vn 0.0000 0.0000 1.0000
vn 0.1771 0.0000 -0.9842
vn -0.2376 0.0000 0.9714
vn -0.0000 0.0000 -1.0000
vn 1.0000 0.0000 0.0000
vn -0.1956 0.0000 -0.9807
vn -1.0000 0.0000 0.0000
vn 0.2155 0.0000 0.9765
vn 0.2217 0.2065 0.9530
vn -0.1987 0.1704 -0.9651
vn -0.0000 0.1739 -0.9848
vn -0.2396 0.2056 0.9489
vn 0.1860 0.1709 -0.9676
vn 0.0000 0.2117 0.9773
vn -0.7364 -0.6764 -0.0089
usemtl マテリアル
s off
f 20/1/1 11/2/1 4/3/1
f 17/4/2 6/5/2 16/6/2
f 6/5/3 15/7/3 16/6/3
f 10/8/4 1/9/4 9/10/4
f 11/2/5 6/5/5 14/11/5
f 12/12/6 9/10/6 13/13/6
f 19/14/7 6/5/7 17/4/7
f 15/7/8 2/15/8 18/16/8
f 8/17/9 14/11/9 19/14/9
f 3/18/10 12/19/10 13/20/10
f 4/3/11 14/11/11 8/17/11
f 2/15/12 20/1/12 18/16/12
f 18/16/13 24/21/13 22/22/13
f 7/23/14 19/14/14 23/24/14
f 1/9/15 18/16/15 22/22/15
f 19/25/16 21/26/16 23/27/16
f 16/6/17 1/9/17 5/28/17
f 17/4/18 5/28/18 21/26/18
f 4/3/19 7/23/19 3/18/19
f 20/1/20 3/18/20 24/21/20
f 13/20/21 24/21/21 3/18/21
f 10/8/22 21/26/22 5/28/22
f 23/27/23 10/8/23 12/12/23
f 1/9/24 22/22/24 9/10/24
f 7/23/25 23/24/25 12/19/25
f 22/22/26 13/20/26 9/10/26
f 6/5/3 2/15/3 15/7/3
f 10/8/4 5/28/4 1/9/4
f 11/2/5 2/15/5 6/5/5
f 12/12/6 10/8/6 9/10/6
f 19/14/7 14/11/7 6/5/7
f 3/18/27 7/23/27 12/19/27
f 4/3/11 11/2/11 14/11/11
f 2/15/12 11/2/12 20/1/12
f 18/16/13 20/1/13 24/21/13
f 7/23/14 8/17/14 19/14/14
f 1/9/15 15/7/15 18/16/15
f 19/25/16 17/4/16 21/26/16
f 16/6/17 15/7/17 1/9/17
f 17/4/18 16/6/18 5/28/18
f 4/3/19 8/17/19 7/23/19
f 20/1/20 4/3/20 3/18/20
f 23/27/23 21/26/23 10/8/23
f 22/22/26 24/21/26 13/20/26
