# Blender v3.2.0 OBJ File: 'wood.blend'
# www.blender.org
mtllib wood.mtl
o 立方体.001_立方体.009
v -0.472976 2.208674 0.698809
v -0.474006 2.920932 0.702210
v -0.462958 2.214581 -0.535079
v -0.463987 2.926839 -0.531677
v 0.760924 2.210409 0.708835
v 0.759895 2.922667 0.712236
v 0.770942 2.216316 -0.525052
v 0.769913 2.928574 -0.521651
v -0.907394 0.924396 1.051152
v -0.909237 2.199152 1.057240
v -0.891385 0.933836 -0.920684
v -0.893227 2.208592 -0.914597
v 1.094836 0.927212 1.067422
v 1.092994 2.201968 1.073510
v 1.110845 0.936652 -0.904415
v 1.109003 2.211407 -0.898327
v -0.119083 -0.143253 0.249765
v -0.120624 0.922751 0.254856
v -0.116030 -0.141452 -0.126370
v -0.117570 0.924552 -0.121279
v 0.418185 -0.142498 0.254131
v 0.416644 0.923507 0.259222
v 0.421239 -0.140697 -0.122004
v 0.419698 0.925308 -0.116914
v -0.197739 2.946306 0.461565
v -0.198727 3.629647 0.464828
v -0.192191 2.949577 -0.221754
v -0.193179 3.632917 -0.218490
v 0.485587 2.947267 0.467118
v 0.484599 3.630607 0.470381
v 0.491135 2.950538 -0.216201
v 0.490147 3.633878 -0.212938
vt 0.867477 0.500125
vt 0.678313 0.464040
vt 0.849032 0.391829
vt 0.714638 0.525939
vt 0.572022 0.560158
vt 0.630735 0.605051
vt 0.486706 0.693304
vt 0.587457 0.727445
vt 0.498246 0.904362
vt 0.892325 0.288728
vt 0.560505 0.335988
vt 0.677043 0.000094
vt 0.647065 0.414701
vt 0.478254 0.460397
vt 0.539687 0.535952
vt 0.359565 0.584698
vt 0.448941 0.685303
vt 0.000094 0.842657
vt 0.352168 0.130360
vt 0.174805 0.160967
vt 0.155095 0.103014
vt 0.357534 0.226248
vt 0.118150 0.211920
vt 0.330070 0.372533
vt 0.105550 0.266019
vt 0.224154 0.410604
vt 0.019771 0.278078
vt 0.403139 0.999905
vt 0.093647 0.443249
vt 0.861867 0.610034
vt 0.733087 0.561075
vt 0.838857 0.540587
vt 0.787112 0.640492
vt 0.671045 0.635926
vt 0.726528 0.673279
vt 0.624316 0.730305
vt 0.733197 0.732873
vt 0.650494 0.836681
vt 0.632022 0.877346
vt 0.743750 0.826128
vt 0.892326 0.684790
vt 0.000000 0.000000
vt 0.000000 0.000000
vt 0.000000 0.000000
vt 0.000000 0.000000
vt 0.000000 0.000000
vt 0.000000 0.000000
vt 0.000000 0.000000
vt 0.000000 0.000000
vn -1.0000 -0.0014 -0.0081
vn 0.0081 0.0048 -1.0000
vn 1.0000 0.0014 0.0081
vn -0.0081 -0.0048 1.0000
vn 0.0013 -0.9999 0.0143
vn 0.0014 -1.0000 -0.0048
vn 0.0015 -0.9999 -0.0131
vn -0.0200 -0.9998 -0.0049
vn -0.0070 -1.0000 -0.0048
vn 0.0180 -0.9998 -0.0046
vn 0.0016 -0.9997 -0.0246
vn -0.0014 1.0000 0.0048
vn 0.0845 0.9964 0.0055
vn -0.0008 0.9974 -0.0725
vn -0.0880 0.9961 0.0041
vn -0.0022 0.9947 0.1023
vn 0.0111 -0.9999 -0.0047
vn 0.0014 -1.0000 0.0034
usemtl マテリアル
s off
f 2/1/1 3/2/1 1/3/1
f 4/4/2 7/5/2 3/2/2
f 8/6/3 5/7/3 7/5/3
f 6/8/4 1/9/4 5/7/4
f 10/10/1 11/11/1 9/12/1
f 12/13/2 15/14/2 11/11/2
f 16/15/3 13/16/3 15/14/3
f 14/17/4 9/18/4 13/16/4
f 16/15/5 3/2/5 12/13/5
f 18/19/1 19/20/1 17/21/1
f 20/22/2 23/23/2 19/20/2
f 24/24/3 21/25/3 23/23/3
f 22/26/4 17/27/4 21/25/4
f 23/23/6 17/21/6 19/20/6
f 15/14/7 20/22/7 11/11/7
f 10/10/1 12/13/1 11/11/1
f 12/13/2 16/15/2 15/14/2
f 16/15/3 14/17/3 13/16/3
f 14/17/4 10/28/4 9/18/4
f 14/17/8 7/5/8 16/15/8
f 18/19/1 20/22/1 19/20/1
f 20/22/2 24/24/2 23/23/2
f 24/24/3 22/26/3 21/25/3
f 22/26/4 18/29/4 17/27/4
f 23/23/6 21/25/6 17/27/6
f 11/11/9 18/19/9 9/12/9
f 3/2/10 10/10/10 12/13/10
f 1/9/11 14/17/11 10/28/11
f 26/30/1 27/31/1 25/32/1
f 28/33/2 31/34/2 27/31/2
f 32/35/3 29/36/3 31/34/3
f 30/37/4 25/38/4 29/36/4
f 28/33/12 30/37/12 32/35/12
f 31/34/13 6/8/13 8/6/13
f 4/4/14 31/34/14 8/6/14
f 2/1/15 27/31/15 4/4/15
f 29/36/16 2/39/16 6/8/16
f 22/26/17 15/14/17 13/16/17
f 18/29/18 13/16/18 9/18/18
f 2/1/1 4/4/1 3/2/1
f 4/4/2 8/6/2 7/5/2
f 8/6/3 6/8/3 5/7/3
f 6/8/4 2/39/4 1/9/4
f 16/15/5 7/5/5 3/2/5
f 15/14/7 24/24/7 20/22/7
f 14/17/8 5/7/8 7/5/8
f 11/11/9 20/22/9 18/19/9
f 3/2/10 1/3/10 10/10/10
f 1/9/11 5/7/11 14/17/11
f 26/30/1 28/33/1 27/31/1
f 28/33/2 32/35/2 31/34/2
f 32/35/3 30/37/3 29/36/3
f 30/37/4 26/40/4 25/38/4
f 28/33/12 26/30/12 30/41/12
f 31/34/13 29/36/13 6/8/13
f 4/4/14 27/31/14 31/34/14
f 2/1/15 25/32/15 27/31/15
f 29/36/16 25/38/16 2/39/16
f 22/26/17 24/24/17 15/14/17
f 18/29/18 22/26/18 13/16/18
f 6/42/12 4/43/12 2/44/12
f 14/45/12 12/46/12 10/47/12
f 6/42/12 8/48/12 4/43/12
f 14/45/12 16/49/12 12/46/12
l 10 16
