# Blender v3.2.0 OBJ File: 'castleOutside.blend'
# www.blender.org
mtllib castleOutside.mtl
o 立方体_立方体.002
v 4.000000 0.121209 -4.000000
v 4.000000 8.995781 -4.000000
v 4.000000 0.121209 1.361377
v 4.000000 8.995781 1.361377
v 2.565618 5.252895 0.449656
v -4.000000 0.121209 -4.000000
v -4.000000 8.995781 -4.000000
v -4.000000 0.121209 1.361377
v -4.000000 8.995781 1.361377
v -2.565618 5.252895 0.449656
v -2.565618 5.252895 -4.000000
v 2.565617 0.121209 -4.000000
v 2.565617 5.252895 -4.000000
v -2.565618 0.121209 -4.000000
v -2.565618 0.121209 0.449656
v 2.565618 0.121209 0.449656
v -10.821492 0.121209 -3.999999
v -10.821492 8.995781 -3.999999
v -10.821492 0.121209 1.361378
v -10.821492 8.995781 1.361378
v 10.883040 0.121209 -4.000001
v 10.883040 8.995781 -4.000001
v 10.883040 0.121209 1.361376
v 10.883040 8.995781 1.361376
v 4.000000 0.121209 3.125745
v -4.000000 0.121209 3.125746
v 4.000000 8.995781 3.125745
v -4.000000 8.995781 3.125746
v -10.821492 0.121209 3.125746
v -10.821492 8.995781 3.125746
v 10.883040 0.121209 3.125745
v 10.883040 8.995781 3.125745
v 4.000001 0.121209 8.523898
v -3.999999 0.121209 8.523898
v 4.000001 8.995781 8.523898
v -3.999999 8.995781 8.523898
v -10.821491 0.121209 8.523899
v -10.821491 8.995781 8.523899
v 10.883041 0.121209 8.523897
v 10.883041 8.995781 8.523897
v -7.410746 8.995781 1.361378
v -7.410746 0.121209 1.361378
v -7.410747 0.121209 -3.999999
v -7.410747 8.995781 -3.999999
v -7.410746 8.995781 3.125746
v -7.410746 0.121209 3.125746
v -7.410745 8.995781 8.523899
v -7.410745 0.121209 8.523899
v 7.441520 0.121209 -4.000000
v 7.441520 0.121209 1.361376
v 7.441520 8.995781 1.361376
v 7.441520 8.995781 -4.000000
v 7.441521 0.121209 3.125745
v 7.441521 8.995781 3.125745
v 7.441521 0.121209 8.523897
v 7.441521 8.995781 8.523897
v 4.000001 0.121209 10.105763
v -3.999999 0.121209 10.105763
v 4.000001 8.995781 10.105763
v -3.999999 8.995781 10.105763
v -10.821491 0.121209 10.105764
v -10.821491 8.995781 10.105764
v -7.410745 8.995781 10.105764
v -7.410745 0.121209 10.105764
v 10.883041 0.121209 10.105762
v 10.883041 8.995781 10.105762
v 7.441521 0.121209 10.105762
v 7.441521 8.995781 10.105762
v 4.000001 0.121209 16.327042
v -3.999999 0.121209 16.327042
v 4.000001 8.995781 16.327042
v -3.999999 8.995781 16.327042
v -10.821491 0.121209 16.327042
v -10.821491 8.995781 16.327042
v -7.410745 8.995781 16.327042
v -7.410745 0.121209 16.327042
v 10.883041 0.121209 16.327042
v 10.883041 8.995781 16.327042
v 7.441522 0.121209 16.327042
v 7.441522 8.995781 16.327042
v -7.410746 10.314978 3.125746
v -10.821492 10.314978 3.125746
v -7.410745 10.314978 8.523899
v -10.821491 10.314978 8.523899
v -7.410745 10.352390 10.105764
v -7.410745 10.352390 16.327042
v -10.821491 10.352390 10.105764
v -10.821491 10.352390 16.327042
v -10.821492 10.174691 -3.999999
v -10.821492 10.174691 1.361378
v -7.410746 10.174691 1.361378
v -7.410747 10.174691 -3.999999
v 10.883040 10.255865 -4.000001
v 10.883040 10.255865 1.361376
v 7.441520 10.255865 1.361376
v 7.441520 10.255865 -4.000000
v 10.883041 10.279703 8.523897
v 10.883040 10.279703 3.125745
v 7.441521 10.279703 3.125745
v 7.441521 10.279703 8.523897
v 10.883041 10.497673 10.105762
v 7.441521 10.497673 10.105762
v 10.883041 10.497673 16.327042
v 7.441522 10.497673 16.327042
v 2.780169 15.363167 4.345577
v 4.000000 14.009981 3.125745
v -4.000000 14.009981 3.125746
v -2.780168 15.363167 4.345578
v 4.000001 14.009981 8.523898
v 2.780169 15.363167 7.304066
v -2.780168 15.363167 7.304067
v -3.999999 14.009981 8.523898
v -15.387656 0.121209 1.361378
v -15.387655 0.121209 8.523899
v -15.387656 0.121209 3.125747
v -15.387655 0.121209 10.105764
v -15.387656 6.526148 1.361378
v -13.161401 8.995781 1.361378
v -15.387656 6.526148 3.125747
v -13.161401 8.995781 3.125747
v -15.387655 6.526148 8.523899
v -13.161400 8.995781 8.523899
v -13.161400 8.995781 10.105764
v -15.387655 6.526148 10.105764
v 15.199104 0.121209 3.125744
v 15.199104 0.121209 1.361376
v 15.199105 0.121209 8.523897
v 15.199105 0.121209 10.105762
v 13.147116 8.995781 1.361376
v 15.199104 6.719466 1.361376
v 13.147116 8.995781 3.125744
v 15.199104 6.719466 3.125744
v 15.199105 6.719466 10.105762
v 13.147117 8.995781 10.105762
v 15.199105 6.719466 8.523897
v 13.147117 8.995781 8.523897
v 4.000000 0.121209 -5.453252
v 4.000000 8.995781 -5.453252
v 7.441520 8.995781 -5.453252
v 7.441520 0.121209 -5.453252
v -4.000000 0.121209 -6.039518
v -4.000000 8.995781 -6.039518
v -7.410747 0.121209 -6.039518
v -7.410747 8.995781 -6.039518
vt 0.880439 0.595307
vt 0.773285 0.664090
vt 0.773285 0.595307
vt 0.813006 0.921548
vt 0.881789 0.886285
vt 0.881789 0.921548
vt 0.771322 0.920859
vt 0.703153 0.956122
vt 0.703153 0.920859
vt 0.000982 0.160872
vt 0.000982 0.000982
vt 0.068416 0.132204
vt 0.522597 0.000982
vt 0.522597 0.160872
vt 0.504375 0.029650
vt 0.160872 0.324689
vt 0.000982 0.431843
vt 0.000982 0.324689
vt 0.562890 0.757161
vt 0.651822 0.849617
vt 0.562890 0.849617
vt 0.000982 0.771078
vt 0.093438 0.668524
vt 0.093438 0.771078
vt 0.539925 0.744265
vt 0.450993 0.836721
vt 0.450993 0.744265
vt 0.774320 0.324689
vt 0.685388 0.427244
vt 0.685388 0.324689
vt 0.324689 0.324689
vt 0.431843 0.484579
vt 0.324689 0.484579
vt 0.000982 0.843788
vt 0.069150 0.950942
vt 0.000982 0.950942
vt 0.685031 0.160872
vt 0.616863 0.000982
vt 0.685031 0.000982
vt 0.139896 0.952906
vt 0.071728 0.974146
vt 0.071728 0.952906
vt 0.162835 0.522597
vt 0.322726 0.415443
vt 0.322726 0.522597
vt 0.962555 0.261766
vt 0.994170 0.216516
vt 0.994170 0.261766
vt 0.998440 0.664090
vt 0.975738 0.595307
vt 0.998440 0.595307
vt 0.000982 0.595814
vt 0.160872 0.527031
vt 0.160872 0.595814
vt 0.432578 0.322726
vt 0.324689 0.162836
vt 0.432578 0.162835
vt 0.896041 0.000982
vt 0.827873 0.108871
vt 0.827873 0.000982
vt 0.324689 0.522597
vt 0.484579 0.487334
vt 0.484579 0.522597
vt 0.920979 0.777168
vt 0.952595 0.892563
vt 0.920979 0.892563
vt 0.160872 0.828414
vt 0.125609 0.668524
vt 0.160872 0.668524
vt 0.392857 0.924864
vt 0.324689 0.960127
vt 0.324689 0.924864
vt 0.935292 0.736800
vt 0.866509 0.772063
vt 0.866509 0.736800
vt 0.986174 0.845951
vt 0.954558 0.777168
vt 0.986174 0.777168
vt 0.992221 0.069150
vt 0.960606 0.000982
vt 0.992221 0.000982
vt 0.989821 0.962695
vt 0.958206 0.894527
vt 0.989821 0.894527
vt 0.811043 0.845951
vt 0.703153 0.777168
vt 0.811042 0.777168
vt 0.921187 0.127285
vt 0.813298 0.151053
vt 0.813298 0.127285
vt 0.757481 0.270725
vt 0.667142 0.162835
vt 0.757481 0.162835
vt 0.108871 0.841825
vt 0.000982 0.773042
vt 0.108871 0.773042
vt 0.392857 0.815012
vt 0.324689 0.922901
vt 0.324689 0.815012
vt 0.631674 0.885159
vt 0.562890 0.916775
vt 0.562890 0.885159
vt 0.881174 0.923512
vt 0.813006 0.958775
vt 0.813006 0.923512
vt 0.897744 0.162836
vt 0.829576 0.270725
vt 0.829576 0.162835
vt 0.269989 0.842505
vt 0.162835 0.910673
vt 0.162835 0.842505
vt 0.160872 0.160872
vt 0.000982 0.160872
vt 0.950571 0.702461
vt 0.882403 0.595307
vt 0.950571 0.595307
vt 0.883753 0.898010
vt 0.919016 0.966178
vt 0.883753 0.966178
vt 0.881174 0.593344
vt 0.773285 0.524560
vt 0.881174 0.524560
vt 0.162835 0.935768
vt 0.270724 0.912636
vt 0.270724 0.935768
vt 0.804901 0.989642
vt 0.773285 0.920859
vt 0.804901 0.920859
vt 0.956242 0.963310
vt 0.920979 0.894527
vt 0.956242 0.894527
vt 0.160872 0.000982
vt 0.160872 0.000982
vt 0.880439 0.666054
vt 0.773285 0.734837
vt 0.773285 0.666054
vt 0.883138 0.563065
vt 0.951921 0.527802
vt 0.951921 0.563065
vt 0.813006 0.777168
vt 0.881789 0.884322
vt 0.813006 0.884322
vt 0.987665 0.139896
vt 0.960606 0.071113
vt 0.987665 0.071113
vt 0.413479 0.160872
vt 0.289139 0.000982
vt 0.413479 0.000982
vt 0.287176 0.160872
vt 0.162835 0.000982
vt 0.287176 0.000982
vt 0.771322 0.524560
vt 0.703154 0.648901
vt 0.703153 0.524560
vt 0.755778 0.000982
vt 0.686994 0.125322
vt 0.686994 0.000982
vt 0.648543 0.944110
vt 0.580375 0.975725
vt 0.580375 0.944110
vt 0.319863 0.938610
vt 0.251695 0.970226
vt 0.251695 0.938610
vt 0.827032 0.291110
vt 0.667142 0.322726
vt 0.667142 0.291110
vt 0.324689 0.632449
vt 0.443568 0.524560
vt 0.443568 0.632449
vt 0.984150 0.773208
vt 0.952534 0.704424
vt 0.984150 0.704424
vt 0.319863 0.845386
vt 0.288247 0.936647
vt 0.288247 0.845386
vt 0.646433 0.487334
vt 0.486543 0.518949
vt 0.486543 0.487334
vt 0.160872 0.322726
vt 0.000982 0.162836
vt 0.160872 0.162835
vt 0.683424 0.484579
vt 0.615256 0.324689
vt 0.683424 0.324689
vt 0.160872 0.597777
vt 0.000982 0.666561
vt 0.000982 0.597777
vt 0.631058 0.684451
vt 0.562890 0.524560
vt 0.631058 0.524560
vt 0.322726 0.612786
vt 0.162835 0.681569
vt 0.162835 0.612786
vt 0.322726 0.289139
vt 0.162835 0.413479
vt 0.162835 0.289139
vt 0.759445 0.287176
vt 0.827613 0.162835
vt 0.827613 0.287176
vt 0.322726 0.162835
vt 0.162835 0.287176
vt 0.162835 0.162836
vt 0.562890 0.686414
vt 0.687231 0.755197
vt 0.562890 0.755197
vt 0.936150 0.146384
vt 0.960591 0.270725
vt 0.936150 0.270725
vt 0.685388 0.429207
vt 0.809728 0.497990
vt 0.685388 0.497990
vt 0.771322 0.650864
vt 0.703153 0.775204
vt 0.703153 0.650864
vt 0.519161 0.838684
vt 0.450993 0.946574
vt 0.450993 0.838684
vt 0.811043 0.895128
vt 0.703153 0.918896
vt 0.703153 0.895128
vt 0.968896 0.414708
vt 0.992664 0.482876
vt 0.968896 0.482876
vt 0.951306 0.565028
vt 0.883138 0.588796
vt 0.883138 0.565028
vt 0.825909 0.000982
vt 0.757741 0.125322
vt 0.757741 0.000982
vt 0.686994 0.151727
vt 0.811335 0.127285
vt 0.811335 0.151727
vt 0.986996 0.214552
vt 0.962555 0.146384
vt 0.986996 0.146384
vt 0.882403 0.728866
vt 0.950571 0.704424
vt 0.950571 0.728866
vt 0.071113 0.843788
vt 0.139281 0.950942
vt 0.071113 0.950942
vt 0.792542 0.499954
vt 0.685388 0.521194
vt 0.685388 0.499954
vt 0.771322 0.958086
vt 0.703153 0.979326
vt 0.703153 0.958086
vt 0.973774 0.702461
vt 0.952534 0.595307
vt 0.973774 0.595307
vt 0.883437 0.324689
vt 0.776283 0.393472
vt 0.776283 0.324689
vt 0.944230 0.414708
vt 0.966933 0.521862
vt 0.944230 0.521862
vt 0.999018 0.346860
vt 0.976316 0.278077
vt 0.999018 0.278077
vt 0.974352 0.385231
vt 0.951650 0.278077
vt 0.974352 0.278077
vt 0.270724 0.840541
vt 0.162835 0.771758
vt 0.270724 0.771758
vt 0.992028 0.553623
vt 0.968896 0.484839
vt 0.992028 0.484839
vt 0.000982 0.976038
vt 0.069765 0.952906
vt 0.069765 0.976038
vt 0.580375 0.942146
vt 0.688264 0.919014
vt 0.688264 0.942146
vt 0.324689 0.744265
vt 0.449029 0.813048
vt 0.324689 0.813048
vt 0.958642 0.125322
vt 0.931583 0.000982
vt 0.958642 0.000982
vt 0.949686 0.402417
vt 0.922627 0.278077
vt 0.949686 0.278077
vt 0.095401 0.668524
vt 0.122460 0.737307
vt 0.095401 0.737307
vt 0.508252 0.742302
vt 0.417913 0.634413
vt 0.508252 0.634413
vt 0.614899 0.160872
vt 0.524560 0.000982
vt 0.614899 0.000982
vt 0.594432 0.162835
vt 0.434542 0.253175
vt 0.434542 0.162836
vt 0.688264 0.917051
vt 0.653786 0.781541
vt 0.688264 0.757161
vt 0.288247 0.707912
vt 0.322726 0.843423
vt 0.288247 0.819043
vt 0.934186 0.246345
vt 0.899708 0.162835
vt 0.934186 0.187215
vt 0.510216 0.658793
vt 0.544694 0.742302
vt 0.510216 0.717922
vt 0.942267 0.525838
vt 0.883138 0.414708
vt 0.942267 0.414708
vt 0.394821 0.815012
vt 0.441587 0.922901
vt 0.394821 0.922901
vt 0.829576 0.319454
vt 0.864839 0.272688
vt 0.864839 0.319454
vt 0.697273 0.975725
vt 0.650507 0.944110
vt 0.697273 0.944110
vt 0.415950 0.742302
vt 0.324689 0.634413
vt 0.415950 0.634413
vt 0.864546 0.772063
vt 0.773285 0.736800
vt 0.864546 0.736800
vt 0.920664 0.393472
vt 0.885401 0.278077
vt 0.920664 0.278077
vt 0.000982 0.525067
vt 0.000982 0.478301
vt 0.045476 0.433807
vt 0.560927 0.524560
vt 0.445531 0.632449
vt 0.445531 0.524560
vt 0.225760 0.937732
vt 0.162835 0.972995
vt 0.162835 0.937732
vt 0.818249 0.414708
vt 0.881174 0.522597
vt 0.818249 0.522597
vt 0.576010 0.255138
vt 0.544394 0.318063
vt 0.544394 0.255138
vt 0.525067 0.484579
vt 0.433807 0.484579
vt 0.433807 0.369184
vt 0.613293 0.484579
vt 0.568042 0.484579
vt 0.527031 0.443568
vt 0.898004 0.000982
vt 0.929620 0.119860
vt 0.898004 0.119860
vt 0.322726 0.524560
vt 0.322726 0.610822
vt 0.203847 0.610822
vt 0.649152 0.883196
vt 0.562890 0.851580
vt 0.649152 0.851580
vt 0.521124 0.924947
vt 0.556388 0.838684
vt 0.556388 0.924947
vt 0.162835 0.769795
vt 0.270724 0.683532
vt 0.270724 0.769795
vt 0.811043 0.847914
vt 0.703153 0.893165
vt 0.703153 0.847914
vt 0.883753 0.896046
vt 0.919016 0.777168
vt 0.919016 0.896046
vt 0.508992 0.983800
vt 0.450993 0.948537
vt 0.508992 0.948537
vt 0.394821 0.982863
vt 0.426436 0.924864
vt 0.426436 0.982863
vt 0.434542 0.313137
vt 0.542431 0.255138
vt 0.542431 0.313137
vt 0.521124 0.972161
vt 0.556388 0.926910
vt 0.556388 0.972161
vt 0.665179 0.322726
vt 0.596395 0.162835
vt 0.665179 0.162835
vt 0.881789 0.777168
vt 0.881789 0.777168
vt 0.000982 0.595814
vt 0.773285 0.666054
vt 0.701190 0.684451
vt 0.633022 0.524560
vt 0.701190 0.524560
vt 0.269989 0.910673
vt 0.269989 0.910673
vt 0.950571 0.595307
vt 0.685031 0.160872
vt 0.880439 0.664090
vt 0.813006 0.886285
vt 0.771322 0.956122
vt 0.160872 0.132204
vt 0.068416 0.029650
vt 0.160872 0.029650
vt 0.415443 0.029650
vt 0.415443 0.000982
vt 0.415443 0.160872
vt 0.504375 0.132204
vt 0.415443 0.132204
vt 0.160872 0.431843
vt 0.651822 0.757161
vt 0.000982 0.668524
vt 0.539925 0.836721
vt 0.774320 0.427244
vt 0.431843 0.324689
vt 0.069150 0.843788
vt 0.616863 0.160872
vt 0.139896 0.974146
vt 0.162835 0.415443
vt 0.962555 0.216516
vt 0.975738 0.664090
vt 0.000982 0.527031
vt 0.324689 0.322726
vt 0.896041 0.108871
vt 0.324689 0.487334
vt 0.952595 0.777168
vt 0.125609 0.828414
vt 0.392857 0.960127
vt 0.935292 0.772063
vt 0.954558 0.845951
vt 0.960606 0.069150
vt 0.958206 0.962695
vt 0.703153 0.845951
vt 0.921187 0.151053
vt 0.667142 0.270725
vt 0.000982 0.841825
vt 0.392857 0.922901
vt 0.631674 0.916775
vt 0.881174 0.958775
vt 0.897744 0.270725
vt 0.160872 0.160872
vt 0.882403 0.702461
vt 0.919016 0.898010
vt 0.773285 0.593344
vt 0.162835 0.912636
vt 0.773285 0.989642
vt 0.920979 0.963310
vt 0.000982 0.000982
vt 0.880439 0.734837
vt 0.883138 0.527802
vt 0.960606 0.139896
vt 0.289139 0.160872
vt 0.162835 0.160872
vt 0.771322 0.648901
vt 0.755778 0.125322
vt 0.648543 0.975725
vt 0.319863 0.970226
vt 0.827032 0.322726
vt 0.324689 0.524560
vt 0.952534 0.773208
vt 0.319863 0.936647
vt 0.646433 0.518949
vt 0.000982 0.322726
vt 0.615256 0.484579
vt 0.160872 0.666561
vt 0.562890 0.684451
vt 0.322726 0.681569
vt 0.322726 0.413479
vt 0.759445 0.162835
vt 0.322726 0.287176
vt 0.687231 0.686414
vt 0.960591 0.146384
vt 0.809728 0.429207
vt 0.771322 0.775204
vt 0.519161 0.946574
vt 0.811043 0.918896
vt 0.992664 0.414708
vt 0.951306 0.588796
vt 0.825909 0.125322
vt 0.686994 0.127285
vt 0.962555 0.214552
vt 0.882403 0.704424
vt 0.139281 0.843788
vt 0.792542 0.521194
vt 0.771322 0.979326
vt 0.952534 0.702461
vt 0.883437 0.393472
vt 0.966933 0.414708
vt 0.976316 0.346860
vt 0.951650 0.385231
vt 0.162835 0.840541
vt 0.968896 0.553623
vt 0.000982 0.952906
vt 0.580375 0.919014
vt 0.449029 0.744265
vt 0.931583 0.125322
vt 0.922627 0.402417
vt 0.122460 0.668524
vt 0.417913 0.742302
vt 0.524560 0.160872
vt 0.594432 0.253175
vt 0.653786 0.892671
vt 0.322726 0.683532
vt 0.899708 0.270725
vt 0.544694 0.634413
vt 0.883138 0.525838
vt 0.441587 0.815012
vt 0.829576 0.272688
vt 0.650507 0.975725
vt 0.324689 0.742302
vt 0.773285 0.772063
vt 0.885401 0.393472
vt 0.160872 0.433807
vt 0.160872 0.525067
vt 0.560927 0.632449
vt 0.225760 0.972995
vt 0.881174 0.414708
vt 0.576010 0.318063
vt 0.478301 0.324689
vt 0.525067 0.324689
vt 0.527031 0.324689
vt 0.613293 0.324689
vt 0.929620 0.000982
vt 0.162835 0.569811
vt 0.162835 0.524560
vt 0.562890 0.883196
vt 0.521124 0.838684
vt 0.162835 0.683532
vt 0.811043 0.893165
vt 0.883753 0.777168
vt 0.450993 0.983800
vt 0.394821 0.924864
vt 0.434542 0.255138
vt 0.521124 0.926910
vt 0.596395 0.322726
vt 0.813006 0.777168
vt 0.160872 0.595814
vt 0.773285 0.734837
vt 0.633022 0.684451
vt 0.269989 0.842505
vt 0.882403 0.595307
vt 0.685031 0.000982
vn 0.0000 -1.0000 0.0000
vn 0.0000 1.0000 0.0000
vn -0.0000 -0.0000 -1.0000
vn -1.0000 0.0000 0.0000
vn 1.0000 0.0000 -0.0000
vn 0.0000 0.0000 1.0000
vn -0.0000 0.6696 -0.7428
vn 0.0000 0.6696 0.7428
vn 0.7428 0.6696 0.0000
vn -0.7428 0.6696 0.0000
usemtl Material
s off
f 49/1/1 23/2/1 50/3/1
f 4/4/2 54/5/2 51/6/2
f 8/7/1 46/8/1 42/9/1
f 7/10/3 2/11/3 11/12/3
f 3/13/1 8/14/1 16/15/1
f 4/16/2 7/17/2 9/18/2
f 5/19/4 12/20/4 16/21/4
f 10/22/3 16/23/3 15/24/3
f 10/25/5 14/26/5 11/27/5
f 5/28/1 11/29/1 13/30/1
f 20/31/4 17/32/4 19/33/4
f 42/34/1 17/35/1 43/36/1
f 43/37/3 18/38/3 44/39/3
f 41/40/6 90/41/6 20/42/6
f 22/43/5 23/44/5 21/45/5
f 66/46/2 136/47/2 40/48/2
f 24/49/6 95/50/6 51/51/6
f 52/52/3 21/53/3 49/54/3
f 25/55/1 34/56/1 26/57/1
f 26/58/1 48/59/1 46/60/1
f 3/61/1 26/62/1 8/63/1
f 114/64/4 124/65/4 121/66/4
f 9/67/2 27/68/2 4/69/2
f 20/70/2 45/71/2 41/72/2
f 23/73/1 53/74/1 50/75/1
f 35/76/2 68/77/2 56/78/2
f 47/79/2 60/80/2 36/81/2
f 38/82/2 63/83/2 47/84/2
f 27/85/2 56/86/2 54/87/2
f 38/88/4 82/89/4 30/90/4
f 36/91/4 107/92/4 28/93/4
f 31/94/1 55/95/1 53/96/1
f 45/97/2 36/98/2 28/99/2
f 56/100/2 66/101/2 40/102/2
f 41/103/2 28/104/2 9/105/2
f 46/106/1 37/107/1 29/108/1
f 7/109/2 41/110/2 9/111/2
f 6/112/5 142/113/5 7/10/5
f 8/114/1 43/115/1 6/116/1
f 42/117/1 29/118/1 19/119/1
f 53/120/1 33/121/1 25/122/1
f 56/123/4 99/124/4 54/125/4
f 55/126/1 57/127/1 33/128/1
f 50/129/1 25/130/1 3/131/1
f 2/11/4 137/132/4 1/133/4
f 4/134/2 52/135/2 2/136/2
f 51/137/2 32/138/2 24/139/2
f 1/140/1 50/141/1 3/142/1
f 68/143/3 101/144/3 66/145/3
f 66/146/5 77/147/5 65/148/5
f 57/149/1 70/150/1 58/151/1
f 63/152/2 72/153/2 60/154/2
f 65/155/1 79/156/1 67/157/1
f 48/158/1 61/159/1 37/160/1
f 34/161/1 64/162/1 48/163/1
f 33/164/1 58/165/1 34/166/1
f 132/167/5 127/168/5 125/169/5
f 39/170/1 67/171/1 55/172/1
f 61/173/1 114/174/1 37/175/1
f 36/176/2 59/177/2 35/178/2
f 71/179/6 70/180/6 69/181/6
f 75/182/6 73/183/6 76/184/6
f 79/185/6 78/186/6 80/187/6
f 72/188/6 76/189/6 70/190/6
f 69/191/6 80/192/6 71/193/6
f 61/194/4 74/195/4 62/196/4
f 64/197/1 73/198/1 61/199/1
f 60/200/2 71/201/2 59/202/2
f 67/203/1 69/204/1 57/205/1
f 63/206/5 86/207/5 75/208/5
f 59/209/2 80/210/2 68/211/2
f 58/212/1 76/213/1 64/214/1
f 82/215/2 83/216/2 81/217/2
f 45/218/5 83/219/5 47/220/5
f 30/221/3 81/222/3 45/223/3
f 47/224/6 84/225/6 38/226/6
f 87/227/2 86/228/2 85/229/2
f 74/230/4 87/231/4 62/232/4
f 75/233/6 88/234/6 74/235/6
f 62/236/3 85/237/3 63/238/3
f 92/239/2 90/240/2 91/241/2
f 20/242/4 89/243/4 18/244/4
f 18/245/3 92/246/3 44/247/3
f 44/248/5 91/249/5 41/250/5
f 95/251/2 93/252/2 96/253/2
f 51/254/4 96/255/4 52/256/4
f 52/257/3 93/258/3 22/259/3
f 22/260/5 94/261/5 24/262/5
f 99/263/2 97/264/2 98/265/2
f 40/266/6 100/267/6 56/268/6
f 54/269/3 98/270/3 32/271/3
f 32/272/5 97/273/5 40/274/5
f 102/275/2 103/276/2 101/277/2
f 80/278/4 102/279/4 68/280/4
f 66/281/5 103/282/5 78/283/5
f 78/284/6 104/285/6 80/286/6
f 27/287/5 109/288/5 35/289/5
f 28/290/3 106/291/3 27/292/3
f 35/293/6 112/294/6 36/295/6
f 107/296/7 105/297/7 106/298/7
f 111/299/8 109/300/8 110/301/8
f 110/302/9 106/303/9 105/304/9
f 108/305/10 112/306/10 111/307/10
f 108/308/2 110/309/2 105/310/2
f 30/311/2 122/312/2 38/313/2
f 20/314/2 120/315/2 30/316/2
f 38/317/2 123/318/2 62/319/2
f 37/320/1 115/321/1 29/322/1
f 29/323/1 113/324/1 19/325/1
f 113/326/4 119/327/4 117/328/4
f 62/329/6 123/330/6 124/331/6
f 115/332/4 121/333/4 119/334/4
f 120/335/10 117/336/10 119/337/10
f 120/338/10 121/339/10 122/340/10
f 124/341/10 122/342/10 121/343/10
f 19/344/3 113/345/3 117/346/3
f 24/347/3 129/348/3 130/349/3
f 135/350/5 128/351/5 127/352/5
f 65/353/6 128/354/6 133/355/6
f 39/356/1 128/357/1 65/358/1
f 23/359/1 125/360/1 31/361/1
f 31/362/1 127/363/1 39/364/1
f 40/365/2 131/366/2 32/367/2
f 126/368/5 132/369/5 125/370/5
f 131/371/9 130/372/9 129/373/9
f 135/374/9 134/375/9 133/376/9
f 132/377/9 136/378/9 135/379/9
f 32/380/2 129/381/2 24/382/2
f 138/383/3 140/384/3 137/385/3
f 1/140/1 140/386/1 49/387/1
f 49/54/5 139/388/5 52/52/5
f 52/135/2 138/389/2 2/136/2
f 141/390/3 144/391/3 142/392/3
f 7/109/2 144/393/2 44/394/2
f 43/115/1 141/395/1 6/116/1
f 44/39/4 143/396/4 43/37/4
f 49/1/1 21/397/1 23/2/1
f 4/4/2 27/398/2 54/5/2
f 8/7/1 26/399/1 46/8/1
f 11/12/3 14/400/3 6/112/3
f 2/11/3 1/133/3 13/401/3
f 1/133/3 12/402/3 13/401/3
f 11/12/3 6/112/3 7/10/3
f 2/11/3 13/401/3 11/12/3
f 16/15/1 12/403/1 1/404/1
f 8/14/1 6/405/1 15/406/1
f 6/405/1 14/407/1 15/406/1
f 16/15/1 1/404/1 3/13/1
f 8/14/1 15/406/1 16/15/1
f 4/16/2 2/408/2 7/17/2
f 5/19/4 13/409/4 12/20/4
f 10/22/3 5/410/3 16/23/3
f 10/25/5 15/411/5 14/26/5
f 5/28/1 10/412/1 11/29/1
f 20/31/4 18/413/4 17/32/4
f 42/34/1 19/414/1 17/35/1
f 43/37/3 17/415/3 18/38/3
f 41/40/6 91/416/6 90/41/6
f 22/43/5 24/417/5 23/44/5
f 66/46/2 134/418/2 136/47/2
f 24/49/6 94/419/6 95/50/6
f 52/52/3 22/420/3 21/53/3
f 25/55/1 33/421/1 34/56/1
f 26/58/1 34/422/1 48/59/1
f 3/61/1 25/423/1 26/62/1
f 114/64/4 116/424/4 124/65/4
f 9/67/2 28/425/2 27/68/2
f 20/70/2 30/426/2 45/71/2
f 23/73/1 31/427/1 53/74/1
f 35/76/2 59/428/2 68/77/2
f 47/79/2 63/429/2 60/80/2
f 38/82/2 62/430/2 63/83/2
f 27/85/2 35/431/2 56/86/2
f 38/88/4 84/432/4 82/89/4
f 36/91/4 112/433/4 107/92/4
f 31/94/1 39/434/1 55/95/1
f 45/97/2 47/435/2 36/98/2
f 56/100/2 68/436/2 66/101/2
f 41/103/2 45/437/2 28/104/2
f 46/106/1 48/438/1 37/107/1
f 7/109/2 44/394/2 41/110/2
f 6/112/5 141/439/5 142/113/5
f 8/114/1 42/440/1 43/115/1
f 42/117/1 46/441/1 29/118/1
f 53/120/1 55/442/1 33/121/1
f 56/123/4 100/443/4 99/124/4
f 55/126/1 67/444/1 57/127/1
f 50/129/1 53/445/1 25/130/1
f 2/11/4 138/446/4 137/132/4
f 4/134/2 51/447/2 52/135/2
f 51/137/2 54/448/2 32/138/2
f 1/140/1 49/387/1 50/141/1
f 68/143/3 102/449/3 101/144/3
f 66/146/5 78/450/5 77/147/5
f 57/149/1 69/451/1 70/150/1
f 63/152/2 75/452/2 72/153/2
f 65/155/1 77/453/1 79/156/1
f 48/158/1 64/454/1 61/159/1
f 34/161/1 58/455/1 64/162/1
f 33/164/1 57/456/1 58/165/1
f 132/167/5 135/457/5 127/168/5
f 39/170/1 65/458/1 67/171/1
f 61/173/1 116/459/1 114/174/1
f 36/176/2 60/460/2 59/177/2
f 71/179/6 72/461/6 70/180/6
f 75/182/6 74/462/6 73/183/6
f 79/185/6 77/463/6 78/186/6
f 72/188/6 75/464/6 76/189/6
f 69/191/6 79/465/6 80/192/6
f 61/194/4 73/466/4 74/195/4
f 64/197/1 76/467/1 73/198/1
f 60/200/2 72/468/2 71/201/2
f 67/203/1 79/469/1 69/204/1
f 63/206/5 85/470/5 86/207/5
f 59/209/2 71/471/2 80/210/2
f 58/212/1 70/472/1 76/213/1
f 82/215/2 84/473/2 83/216/2
f 45/218/5 81/474/5 83/219/5
f 30/221/3 82/475/3 81/222/3
f 47/224/6 83/476/6 84/225/6
f 87/227/2 88/477/2 86/228/2
f 74/230/4 88/478/4 87/231/4
f 75/233/6 86/479/6 88/234/6
f 62/236/3 87/480/3 85/237/3
f 92/239/2 89/481/2 90/240/2
f 20/242/4 90/482/4 89/243/4
f 18/245/3 89/483/3 92/246/3
f 44/248/5 92/484/5 91/249/5
f 95/251/2 94/485/2 93/252/2
f 51/254/4 95/486/4 96/255/4
f 52/257/3 96/487/3 93/258/3
f 22/260/5 93/488/5 94/261/5
f 99/263/2 100/489/2 97/264/2
f 40/266/6 97/490/6 100/267/6
f 54/269/3 99/491/3 98/270/3
f 32/272/5 98/492/5 97/273/5
f 102/275/2 104/493/2 103/276/2
f 80/278/4 104/494/4 102/279/4
f 66/281/5 101/495/5 103/282/5
f 78/284/6 103/496/6 104/285/6
f 27/287/5 106/497/5 109/288/5
f 28/290/3 107/498/3 106/291/3
f 35/293/6 109/499/6 112/294/6
f 107/296/7 108/500/7 105/297/7
f 111/299/8 112/501/8 109/300/8
f 110/302/9 109/502/9 106/303/9
f 108/305/10 107/503/10 112/306/10
f 108/308/2 111/504/2 110/309/2
f 30/311/2 120/505/2 122/312/2
f 20/314/2 118/506/2 120/315/2
f 38/317/2 122/507/2 123/318/2
f 37/320/1 114/508/1 115/321/1
f 29/323/1 115/509/1 113/324/1
f 113/326/4 115/510/4 119/327/4
f 116/511/6 61/512/6 124/331/6
f 61/512/6 62/329/6 124/331/6
f 115/332/4 114/513/4 121/333/4
f 120/335/10 118/514/10 117/336/10
f 120/338/10 119/515/10 121/339/10
f 124/341/10 123/516/10 122/342/10
f 118/517/3 20/518/3 117/346/3
f 20/518/3 19/344/3 117/346/3
f 126/519/3 23/520/3 130/349/3
f 23/520/3 24/347/3 130/349/3
f 135/350/5 133/521/5 128/351/5
f 134/522/6 66/523/6 133/355/6
f 66/523/6 65/353/6 133/355/6
f 39/356/1 127/524/1 128/357/1
f 23/359/1 126/525/1 125/360/1
f 31/362/1 125/526/1 127/363/1
f 40/365/2 136/527/2 131/366/2
f 126/368/5 130/528/5 132/369/5
f 131/371/9 132/529/9 130/372/9
f 135/374/9 136/530/9 134/375/9
f 132/377/9 131/531/9 136/378/9
f 32/380/2 131/532/2 129/381/2
f 138/383/3 139/533/3 140/384/3
f 1/140/1 137/534/1 140/386/1
f 49/54/5 140/535/5 139/388/5
f 52/135/2 139/536/2 138/389/2
f 141/390/3 143/537/3 144/391/3
f 7/109/2 142/538/2 144/393/2
f 43/115/1 143/539/1 141/395/1
f 44/39/4 144/540/4 143/396/4
