# Blender v3.2.0 OBJ File: ''
# www.blender.org
mtllib yuka5.mtl
o 立方体.006_立方体.003
v -18.569895 -14.753405 7.249279
v -18.569895 14.753405 7.249279
v 50.586033 -14.753405 7.897262
v 50.586033 14.753405 7.897262
v -18.569897 -14.753405 -56.602470
v -18.569897 14.753405 -56.602470
v 45.281849 -14.753405 -56.602474
v 45.281849 14.753405 -56.602474
v 37.044880 -14.753405 17.440781
v -18.569895 -14.753405 20.295609
v -18.569895 14.753405 20.295609
v 37.044880 14.753405 17.440781
v 46.643410 -14.753405 31.487516
v -17.829706 -14.753405 34.342350
v -17.829706 14.753405 34.342350
v 46.643410 14.753405 31.487516
v 16.008068 -14.753405 7.573271
v 16.008072 14.753405 7.573271
v 13.355980 -14.753405 -56.602470
v 13.355980 14.753405 -56.602470
v 9.237496 -14.753405 18.868195
v 9.237494 14.753405 18.868195
v 32.755295 -14.753405 39.462288
v 32.755295 14.753405 39.462288
v -44.528461 -14.753405 2.225818
v -44.528461 14.753405 2.225818
v -44.528465 14.753405 -61.625935
v -44.528465 -14.753405 -61.625935
v -44.528461 -14.753405 15.272150
v -44.528461 14.753405 15.272150
v -43.788277 -14.753405 29.318884
v -43.788277 14.753405 29.318884
vt 0.375000 0.250000
vt 0.625000 0.250000
vt 0.625000 0.250000
vt 0.375000 0.500000
vt 0.625000 0.625000
vt 0.375000 0.750000
vt 0.375000 0.625000
vt 0.625000 0.750000
vt 0.375000 0.750000
vt 0.125000 0.750000
vt 0.125000 0.625000
vt 0.875000 0.750000
vt 0.375000 0.250000
vt 0.625000 0.250000
vt 0.875000 0.750000
vt 0.625000 0.750000
vt 0.875000 0.625000
vt 0.875000 0.500000
vt 0.875000 0.625000
vt 0.125000 0.625000
vt 0.625000 0.125000
vt 0.375000 0.250000
vt 0.375000 0.125000
vt 0.875000 0.750000
vt 0.875000 0.750000
vt 0.875000 0.750000
vt 0.875000 0.625000
vt 0.125000 0.750000
vt 0.125000 0.625000
vt 0.125000 0.500000
vt 0.125000 0.500000
vt 0.875000 0.750000
vt 0.625000 0.000000
vt 0.375000 0.000000
vt 0.125000 0.500000
vt 0.625000 0.500000
vt 0.375000 1.000000
vt 0.625000 1.000000
vt 0.375000 1.000000
vt 0.625000 1.000000
vt 0.375000 1.000000
vt 0.125000 0.750000
vt 0.125000 0.750000
vt 0.625000 0.000000
vt 0.125000 0.750000
vt 0.125000 0.750000
vt 0.875000 0.500000
vt 0.875000 0.500000
vt 0.625000 1.000000
vt 0.375000 0.000000
vn -0.5761 0.0000 -0.8174
vn -0.9966 0.0000 0.0820
vn 0.0000 0.0000 1.0000
vn -0.1900 0.0000 0.9818
vn 0.0000 1.0000 0.0000
vn 0.0000 -1.0000 -0.0000
vn -0.8256 0.0000 0.5642
vn -0.4980 0.0000 -0.8672
vn 0.1007 0.0000 -0.9949
vn 1.0000 0.0000 -0.0000
vn 0.9986 0.0000 -0.0526
vn 0.1900 0.0000 -0.9818
usemtl None
s off
f 3/1/1 12/2/1 4/3/1
f 4/3/2 7/4/2 3/1/2
f 20/5/3 5/6/3 19/7/3
f 6/8/4 28/9/4 5/6/4
f 19/7/5 1/10/5 17/11/5
f 20/5/6 2/12/6 6/8/6
f 9/13/7 16/14/7 12/2/7
f 6/8/6 26/15/6 27/16/6
f 18/17/6 12/18/6 22/19/6
f 1/10/5 21/20/5 17/11/5
f 24/21/8 13/22/8 23/23/8
f 11/24/6 32/25/6 30/26/6
f 12/18/6 24/27/6 22/19/6
f 21/20/5 14/28/5 23/29/5
f 9/30/5 23/29/5 13/31/5
f 22/19/6 15/32/6 11/24/6
f 15/33/9 23/23/9 14/34/9
f 17/11/5 9/30/5 3/35/5
f 2/12/6 22/19/6 11/24/6
f 8/36/6 18/17/6 20/5/6
f 7/4/5 17/11/5 3/35/5
f 8/36/3 19/7/3 7/4/3
f 27/16/10 25/37/10 28/9/10
f 26/38/10 29/39/10 25/37/10
f 30/40/11 31/41/11 29/39/11
f 2/12/6 30/26/6 26/15/6
f 10/42/5 31/43/5 14/28/5
f 14/34/12 32/44/12 15/33/12
f 5/6/5 25/45/5 1/10/5
f 1/10/5 29/46/5 10/42/5
f 3/1/1 9/13/1 12/2/1
f 4/3/2 8/36/2 7/4/2
f 20/5/3 6/8/3 5/6/3
f 6/8/4 27/16/4 28/9/4
f 19/7/5 5/6/5 1/10/5
f 20/5/6 18/17/6 2/12/6
f 9/13/7 13/22/7 16/14/7
f 6/8/6 2/12/6 26/15/6
f 18/17/6 4/47/6 12/18/6
f 1/10/5 10/42/5 21/20/5
f 24/21/8 16/14/8 13/22/8
f 11/24/6 15/32/6 32/25/6
f 12/18/6 16/48/6 24/27/6
f 21/20/5 10/42/5 14/28/5
f 9/30/5 21/20/5 23/29/5
f 22/19/6 24/27/6 15/32/6
f 15/33/9 24/21/9 23/23/9
f 17/11/5 21/20/5 9/30/5
f 2/12/6 18/17/6 22/19/6
f 8/36/6 4/47/6 18/17/6
f 7/4/5 19/7/5 17/11/5
f 8/36/3 20/5/3 19/7/3
f 27/16/10 26/38/10 25/37/10
f 26/38/10 30/40/10 29/39/10
f 30/40/11 32/49/11 31/41/11
f 2/12/6 11/24/6 30/26/6
f 10/42/5 29/46/5 31/43/5
f 14/34/12 31/50/12 32/44/12
f 5/6/5 28/9/5 25/45/5
f 1/10/5 25/45/5 29/46/5
