# Blender v3.1.2 OBJ File: 'signboard.blend'
# www.blender.org
mtllib signboard.mtl
o Cube
v 0.262313 3.384574 -0.389486
v 0.262313 -1.069676 -0.389486
v 0.262313 3.384574 0.389486
v 0.262313 -1.069676 0.389486
v -0.262313 3.384574 -0.389486
v -0.262313 -1.069676 -0.389486
v -0.262313 3.384574 0.389486
v -0.262313 -1.069676 0.389486
v 0.371494 3.825249 0.551600
v -0.371494 3.825249 0.551600
v 0.371494 3.825249 -0.551600
v -0.371494 3.825249 -0.551600
v 0.371494 9.118754 0.551600
v -0.371494 9.118754 0.551600
v 0.371494 9.118754 -0.551600
v -0.371494 9.118754 -0.551600
v -4.001308 3.825249 0.551600
v -4.001308 3.825249 -0.551600
v -4.001308 9.118754 0.551600
v -4.001308 9.118754 -0.551600
v 3.871135 3.825249 -0.551600
v 3.871135 3.825249 0.551600
v 3.871135 9.118754 -0.551600
v 3.871135 9.118754 0.551600
v 0.371494 9.119718 0.551600
v 0.322038 9.539615 0.478167
v -0.322038 9.539615 0.478167
v -0.371494 9.119718 0.551600
v 0.371494 9.119718 -0.551600
v 0.322038 9.539615 -0.478167
v -0.322038 9.539615 -0.478167
v -0.371494 9.119718 -0.551600
vt 0.487659 0.376443
vt 0.441903 0.387592
vt 0.448616 0.372670
vt 0.443495 0.656379
vt 0.460306 0.725159
vt 0.432502 0.705670
vt 0.481596 0.667486
vt 0.475890 0.755943
vt 0.467640 0.323657
vt 0.483592 0.270189
vt 0.491544 0.321381
vt 0.455819 0.289168
vt 0.492417 0.570849
vt 0.682358 0.602106
vt 0.489101 0.653288
vt 0.503074 0.739501
vt 0.494893 0.732766
vt 0.427687 0.306266
vt 0.435597 0.312398
vt 0.495235 0.469236
vt 0.444395 0.471455
vt 0.443318 0.469807
vt 0.437313 0.640049
vt 0.494965 0.392001
vt 0.196314 0.524098
vt 0.441651 0.566168
vt 0.751901 0.515363
vt 0.737160 0.664369
vt 0.680811 0.562549
vt 0.751173 0.450337
vt 0.247693 0.446590
vt 0.186414 0.446899
vt 0.221968 0.379528
vt 0.199250 0.447498
vt 0.442641 0.564396
vt 0.487433 0.481657
vt 0.448170 0.556062
vt 0.450034 0.481107
vt 0.494326 0.471103
vt 0.486592 0.559843
vt 0.491345 0.569327
vt 0.450095 0.480756
vt 0.487381 0.481208
vt 0.192434 0.601441
vt 0.750903 0.373101
vt 0.234593 0.509238
vn 0.0000 -0.3453 -0.9385
vn 0.0000 0.0000 1.0000
vn -1.0000 0.0000 0.0000
vn 0.0000 -1.0000 0.0000
vn 1.0000 0.0000 0.0000
vn 0.0000 0.0000 -1.0000
vn 0.0000 -0.3453 0.9385
vn -0.9707 -0.2405 0.0000
vn 0.9707 -0.2405 0.0000
vn 0.0000 1.0000 0.0000
vn 0.0000 0.1723 0.9851
vn 0.9931 0.1170 0.0000
vn -0.9931 0.1170 0.0000
vn 0.0000 0.1723 -0.9851
usemtl Material
s off
f 5/1/1 11/2/1 1/3/1
f 3/4/2 8/5/2 4/6/2
f 7/7/3 6/8/3 8/5/3
f 2/9/4 8/10/4 6/11/4
f 1/3/5 4/12/5 2/9/5
f 5/1/6 2/9/6 6/11/6
f 14/13/2 17/14/2 10/15/2
f 3/4/7 10/15/7 7/7/7
f 7/7/8 12/16/8 5/17/8
f 1/3/9 9/18/9 3/19/9
f 16/20/6 29/21/6 15/22/6
f 9/23/2 14/13/2 10/15/2
f 12/24/6 15/22/6 11/2/6
f 9/23/2 24/25/2 13/26/2
f 17/14/3 20/27/3 18/28/3
f 16/20/10 19/29/10 14/13/10
f 10/15/4 18/28/4 12/16/4
f 12/24/6 20/30/6 16/20/6
f 21/31/5 24/32/5 22/33/5
f 11/2/4 22/33/4 9/18/4
f 15/22/6 21/31/6 11/2/6
f 13/26/10 23/34/10 15/22/10
f 15/22/5 25/35/5 13/26/5
f 31/36/10 26/37/10 30/38/10
f 14/13/3 32/39/3 16/20/3
f 27/40/11 25/35/11 26/37/11
f 26/37/12 29/21/12 30/38/12
f 31/36/13 28/41/13 27/40/13
f 30/42/14 32/39/14 31/43/14
f 13/26/2 28/41/2 14/13/2
f 5/1/1 12/24/1 11/2/1
f 3/4/2 7/7/2 8/5/2
f 7/7/3 5/17/3 6/8/3
f 2/9/4 4/12/4 8/10/4
f 1/3/5 3/19/5 4/12/5
f 5/1/6 1/3/6 2/9/6
f 14/13/2 19/29/2 17/14/2
f 3/4/7 9/23/7 10/15/7
f 7/7/8 10/15/8 12/16/8
f 1/3/9 11/2/9 9/18/9
f 16/20/6 32/39/6 29/21/6
f 9/23/2 13/26/2 14/13/2
f 12/24/6 16/20/6 15/22/6
f 9/23/2 22/44/2 24/25/2
f 17/14/3 19/29/3 20/27/3
f 16/20/10 20/27/10 19/29/10
f 10/15/4 17/14/4 18/28/4
f 12/24/6 18/45/6 20/30/6
f 21/31/5 23/46/5 24/32/5
f 11/2/4 21/31/4 22/33/4
f 15/22/6 23/46/6 21/31/6
f 13/26/10 24/25/10 23/34/10
f 15/22/5 29/21/5 25/35/5
f 31/36/10 27/40/10 26/37/10
f 14/13/3 28/41/3 32/39/3
f 27/40/11 28/41/11 25/35/11
f 26/37/12 25/35/12 29/21/12
f 31/36/13 32/39/13 28/41/13
f 30/42/14 29/21/14 32/39/14
f 13/26/2 25/35/2 28/41/2
