# Blender v3.1.2 OBJ File: 'IronBar.blend'
# www.blender.org
mtllib IronBar.mtl
o Cube
v 0.100000 -0.141604 1.000000
v -0.100000 -0.141604 1.000000
v -0.100000 -0.141604 0.781432
v -0.100000 -1.000000 0.781432
v 0.100000 -1.000000 0.781432
v 0.100000 -0.141604 0.781432
v -0.100000 1.000000 0.781432
v 0.100000 1.000000 0.781432
v 0.100000 0.178114 1.000000
v -0.100000 0.178114 1.000000
v -0.100000 0.178114 0.781432
v 0.100000 0.178114 0.781432
v 0.100000 1.000000 0.447679
v 0.100000 1.000000 0.186094
v -0.100000 1.000000 0.447679
v -0.100000 1.000000 0.186094
v -0.100000 0.580597 0.186094
v -0.100000 0.580597 0.447679
v 0.100000 0.580597 0.447679
v 0.100000 0.580597 0.186094
v -0.100000 -1.000000 0.447679
v -0.100000 -1.000000 0.186094
v -0.100000 0.303187 0.186094
v -0.100000 0.303187 0.447679
v 0.100000 -1.000000 0.447679
v 0.100000 -1.000000 0.186094
v 0.100000 0.303187 0.447679
v 0.100000 0.303187 0.186094
v -0.100000 -1.000000 -0.158862
v -0.100000 -0.552809 -0.158862
v -0.100000 -0.552809 -0.420447
v -0.100000 -1.000000 -0.420447
v 0.100000 -1.000000 -0.158862
v 0.100000 -1.000000 -0.420447
v 0.100000 -0.552809 -0.158862
v 0.100000 -0.552809 -0.420447
v 0.100000 1.000000 -0.158862
v 0.100000 1.000000 -0.420447
v -0.100000 1.000000 -0.158862
v -0.100000 1.000000 -0.420447
v -0.100000 -0.144579 -0.420447
v -0.100000 -0.144579 -0.158862
v 0.100000 -0.144579 -0.420447
v 0.100000 -0.144579 -0.158862
v 0.100000 1.000000 -0.785373
v -0.100000 1.000000 -0.785373
v -0.100000 0.184484 -0.785373
v -0.100000 0.184484 -1.000000
v 0.100000 0.184484 -0.785373
v 0.100000 0.184484 -1.000000
v -0.100000 -1.000000 -0.785373
v -0.100000 -0.169741 -1.000000
v -0.100000 -0.169741 -0.785373
v 0.100000 -1.000000 -0.785373
v 0.100000 -0.169741 -1.000000
v 0.100000 -0.169741 -0.785373
vt 0.508982 0.177509
vt 0.254713 0.131115
vt 0.508982 0.131115
vt 0.508982 0.545653
vt 0.254713 0.501797
vt 0.508982 0.501797
vt 0.508982 0.727982
vt 0.254713 0.685550
vt 0.508982 0.685550
vt 0.254417 0.040795
vt 0.000148 0.000148
vt 0.254417 0.000148
vt 0.566132 0.435301
vt 0.618032 0.435301
vt 0.614833 0.481696
vt 0.254417 0.775582
vt 0.000148 0.821977
vt 0.000148 0.775582
vt 0.254417 0.584763
vt 0.000148 0.628618
vt 0.000148 0.584763
vt 0.254417 0.177715
vt 0.000148 0.220146
vt 0.000148 0.177715
vt 0.613769 0.027936
vt 0.654416 0.027936
vt 0.597867 0.070367
vt 0.254417 0.999852
vt 0.000148 0.954818
vt 0.254417 0.954818
vt 0.254417 0.068583
vt 0.000148 0.040795
vt 0.000148 0.068583
vt 0.254713 0.832472
vt 0.508982 0.860260
vt 0.254713 0.860260
vt 0.254713 0.727982
vt 0.254713 0.632230
vt 0.508982 0.632230
vt 0.254713 0.598973
vt 0.508982 0.598973
vt 0.254713 0.545653
vt 0.000148 0.419083
vt 0.254417 0.385826
vt 0.254417 0.419083
vt 0.000148 0.385826
vt 0.254417 0.220146
vt 0.000148 0.718728
vt 0.254417 0.685472
vt 0.254417 0.718729
vt 0.254417 0.628618
vt 0.254713 0.356281
vt 0.508982 0.356281
vt 0.254713 0.323025
vt 0.508982 0.323025
vt 0.254713 0.177509
vt 0.254713 0.027434
vt 0.508982 0.027435
vt 0.254713 0.000148
vt 0.508982 0.000148
vt 0.000148 0.927531
vt 0.254417 0.821977
vt 0.674959 0.324932
vt 0.509278 0.324932
vt 0.618410 0.282501
vt 0.509278 0.282501
vt 0.618410 0.254713
vt 0.659057 0.254713
vt 0.509278 0.402045
vt 0.509278 0.358189
vt 0.566132 0.402045
vt 0.674959 0.358189
vt 0.618032 0.402045
vt 0.509279 0.481696
vt 0.509279 0.435301
vt 0.659867 0.508982
vt 0.614833 0.508982
vt 0.659057 0.282501
vt 0.763547 0.282501
vt 0.710227 0.324932
vt 0.763547 0.324932
vt 0.710227 0.358189
vt 0.763547 0.358189
vt 0.763547 0.402044
vt 0.763547 0.435301
vt 0.659867 0.481696
vt 0.763547 0.481696
vt 0.657993 0.227131
vt 0.657993 0.254417
vt 0.612958 0.254417
vt 0.612959 0.227131
vt 0.509278 0.227130
vt 0.509278 0.180736
vt 0.763547 0.180736
vt 0.763547 0.227131
vt 0.706694 0.180736
vt 0.654794 0.180736
vt 0.706694 0.147479
vt 0.763547 0.103624
vt 0.763547 0.147479
vt 0.597867 0.103624
vt 0.654794 0.147479
vt 0.509278 0.147479
vt 0.509278 0.103624
vt 0.562599 0.103624
vt 0.562599 0.070367
vt 0.509278 0.070367
vt 0.509278 0.027936
vt 0.763548 0.027936
vt 0.763548 0.070367
vt 0.613769 0.000148
vt 0.654416 0.000148
vt 0.000148 0.999852
vt 0.508982 0.832472
vt 0.000148 0.685472
vt 0.254417 0.927531
vn 0.0000 1.0000 0.0000
vn 0.0000 0.0000 1.0000
vn -1.0000 0.0000 0.0000
vn 0.0000 -1.0000 0.0000
vn 1.0000 0.0000 0.0000
vn 0.0000 0.0000 -1.0000
usemtl Material
s off
f 40/1/1 45/2/1 46/3/1
f 16/4/1 37/5/1 39/6/1
f 7/7/1 13/8/1 15/9/1
f 2/10/2 9/11/2 10/12/2
f 31/13/3 41/14/3 53/15/3
f 32/16/4 54/17/4 34/18/4
f 22/19/4 33/20/4 26/21/4
f 4/22/4 25/23/4 5/24/4
f 12/25/5 6/26/5 27/27/5
f 48/28/6 55/29/6 52/30/6
f 3/31/4 1/32/4 2/10/4
f 4/22/2 6/33/2 3/31/2
f 12/34/1 10/35/1 9/36/1
f 7/7/2 12/34/2 8/37/2
f 19/38/6 15/9/6 13/8/6
f 18/39/1 20/40/1 17/41/1
f 16/4/2 20/40/2 14/42/2
f 28/43/4 24/44/4 23/45/4
f 27/46/6 21/47/6 24/44/6
f 23/45/2 26/21/2 28/43/2
f 36/48/4 30/49/4 31/50/4
f 30/49/6 33/20/6 29/51/6
f 36/48/2 32/16/2 34/18/2
f 44/52/6 39/6/6 37/5/6
f 42/53/1 43/54/1 41/55/1
f 41/55/2 38/56/2 40/1/2
f 49/57/6 46/3/6 45/2/6
f 47/58/1 50/59/1 48/60/1
f 56/61/4 52/30/4 55/29/4
f 51/62/6 56/61/6 54/17/6
f 40/1/1 38/56/1 45/2/1
f 16/4/1 14/42/1 37/5/1
f 7/7/1 8/37/1 13/8/1
f 2/10/2 1/32/2 9/11/2
f 24/63/3 21/64/3 3/65/3
f 21/64/3 4/66/3 3/65/3
f 3/65/3 2/67/3 10/68/3
f 29/69/3 22/70/3 30/71/3
f 22/70/3 23/72/3 42/73/3
f 30/71/3 22/70/3 42/73/3
f 51/74/3 32/75/3 31/13/3
f 31/13/3 30/71/3 42/73/3
f 51/74/3 31/13/3 53/15/3
f 48/76/3 52/77/3 53/15/3
f 3/65/3 10/68/3 11/78/3
f 11/78/3 7/79/3 18/80/3
f 7/79/3 15/81/3 18/80/3
f 24/63/3 3/65/3 11/78/3
f 24/63/3 11/78/3 18/80/3
f 17/82/3 16/83/3 39/84/3
f 24/63/3 18/80/3 17/82/3
f 23/72/3 24/63/3 17/82/3
f 17/82/3 39/84/3 23/72/3
f 39/84/3 42/73/3 23/72/3
f 41/14/3 40/85/3 47/86/3
f 40/85/3 46/87/3 47/86/3
f 31/13/3 42/73/3 41/14/3
f 41/14/3 47/86/3 53/15/3
f 47/86/3 48/76/3 53/15/3
f 32/16/4 51/62/4 54/17/4
f 22/19/4 29/51/4 33/20/4
f 4/22/4 21/47/4 25/23/4
f 56/88/5 55/89/5 50/90/5
f 49/91/5 45/92/5 38/93/5
f 56/88/5 50/90/5 49/91/5
f 34/94/5 54/95/5 36/96/5
f 54/95/5 56/88/5 36/96/5
f 56/88/5 49/91/5 43/97/5
f 49/91/5 38/93/5 43/97/5
f 35/98/5 36/96/5 43/97/5
f 36/96/5 56/88/5 43/97/5
f 26/99/5 33/100/5 35/98/5
f 28/101/5 26/99/5 44/102/5
f 26/99/5 35/98/5 44/102/5
f 44/102/5 37/103/5 28/101/5
f 37/103/5 14/104/5 20/105/5
f 35/98/5 43/97/5 44/102/5
f 37/103/5 20/105/5 28/101/5
f 19/106/5 13/107/5 8/108/5
f 5/109/5 25/110/5 6/26/5
f 25/110/5 27/27/5 6/26/5
f 27/27/5 28/101/5 20/105/5
f 19/106/5 8/108/5 12/25/5
f 27/27/5 20/105/5 19/106/5
f 9/111/5 1/112/5 6/26/5
f 27/27/5 19/106/5 12/25/5
f 12/25/5 9/111/5 6/26/5
f 48/28/6 50/113/6 55/29/6
f 3/31/4 6/33/4 1/32/4
f 4/22/2 5/24/2 6/33/2
f 12/34/1 11/114/1 10/35/1
f 7/7/2 11/114/2 12/34/2
f 19/38/6 18/39/6 15/9/6
f 18/39/1 19/38/1 20/40/1
f 16/4/2 17/41/2 20/40/2
f 28/43/4 27/46/4 24/44/4
f 27/46/6 25/23/6 21/47/6
f 23/45/2 22/19/2 26/21/2
f 36/48/4 35/115/4 30/49/4
f 30/49/6 35/115/6 33/20/6
f 36/48/2 31/50/2 32/16/2
f 44/52/6 42/53/6 39/6/6
f 42/53/1 44/52/1 43/54/1
f 41/55/2 43/54/2 38/56/2
f 49/57/6 47/58/6 46/3/6
f 47/58/1 49/57/1 50/59/1
f 56/61/4 53/116/4 52/30/4
f 51/62/6 53/116/6 56/61/6
