# Blender v3.1.2 OBJ File: 'targetMark.blend'
# www.blender.org
mtllib targetMark.mtl
o 円柱
v 0.382683 -0.050000 -0.923880
v 0.382683 0.050000 -0.923880
v 0.555570 -0.050000 -0.831470
v 0.555570 0.050000 -0.831470
v 0.707107 -0.050000 -0.707107
v 0.707107 0.050000 -0.707107
v 0.831470 -0.050000 -0.555570
v 0.831470 0.050000 -0.555570
v 0.923880 -0.050000 -0.382683
v 0.923880 0.050000 -0.382683
v 0.923880 -0.050000 0.382683
v 0.923880 0.050000 0.382683
v 0.831470 -0.050000 0.555570
v 0.831470 0.050000 0.555570
v 0.707107 -0.050000 0.707107
v 0.707107 0.050000 0.707107
v 0.555570 -0.050000 0.831470
v 0.555570 0.050000 0.831470
v 0.382683 -0.050000 0.923880
v 0.382683 0.050000 0.923880
v -0.382683 -0.050000 0.923880
v -0.382683 0.050000 0.923880
v -0.555570 -0.050000 0.831470
v -0.555570 0.050000 0.831470
v -0.707107 -0.050000 0.707107
v -0.707107 0.050000 0.707107
v -0.831469 -0.050000 0.555570
v -0.831469 0.050000 0.555570
v -0.923880 -0.050000 0.382684
v -0.923880 0.050000 0.382684
v -0.923879 -0.050000 -0.382684
v -0.923879 0.050000 -0.382684
v -0.831470 -0.050000 -0.555570
v -0.831470 0.050000 -0.555570
v -0.707107 -0.050000 -0.707107
v -0.707107 0.050000 -0.707107
v -0.555570 -0.050000 -0.831470
v -0.555570 0.050000 -0.831470
v -0.382683 -0.050000 -0.923880
v -0.382683 0.050000 -0.923880
v -0.717098 0.050000 -0.479149
v -0.479150 0.050000 -0.717098
v -0.609842 0.050000 -0.609842
v -0.330044 0.050000 -0.796797
v -0.717098 0.050000 0.479150
v -0.479150 0.050000 0.717098
v -0.609842 0.050000 0.609842
v -0.796797 0.050000 0.330044
v 0.479150 0.050000 0.717098
v 0.717098 0.050000 0.479150
v 0.609842 0.050000 0.609842
v 0.330044 0.050000 0.796797
v 0.479150 0.050000 -0.717098
v 0.717098 0.050000 -0.479150
v 0.609842 0.050000 -0.609842
v 0.796797 0.050000 -0.330044
v -0.796797 0.050000 -0.330044
v -0.330044 0.050000 0.796797
v 0.330044 0.050000 -0.796797
v 0.796797 0.050000 0.330044
v 0.330044 -0.050000 -0.796797
v 0.609842 -0.050000 -0.609842
v 0.796797 -0.050000 -0.330044
v 0.717098 -0.050000 -0.479150
v 0.479150 -0.050000 -0.717098
v 0.330044 -0.050000 0.796797
v 0.609842 -0.050000 0.609842
v 0.479150 -0.050000 0.717098
v 0.796797 -0.050000 0.330044
v 0.717098 -0.050000 0.479150
v -0.796797 -0.050000 0.330044
v -0.609842 -0.050000 0.609842
v -0.717098 -0.050000 0.479150
v -0.330044 -0.050000 0.796797
v -0.479150 -0.050000 0.717098
v -0.796797 -0.050000 -0.330044
v -0.609842 -0.050000 -0.609842
v -0.330044 -0.050000 -0.796797
v -0.479150 -0.050000 -0.717098
v -0.717098 -0.050000 -0.479149
v 0.200000 0.050000 -0.979296
v 0.200000 -0.050000 -0.979296
v 0.200000 0.050000 0.979296
v 0.200000 -0.050000 0.979296
v -0.200000 0.050000 0.979296
v -0.200000 -0.050000 0.979296
v 0.200000 0.050000 -0.836245
v -0.200000 0.050000 -0.979296
v -0.200000 0.050000 -0.836245
v 0.200000 0.050000 0.836245
v -0.200000 0.050000 0.836245
v -0.200000 -0.050000 -0.979296
v -0.200000 -0.050000 -0.836245
v -0.200000 -0.050000 0.836245
v 0.200000 -0.050000 -0.836245
v 0.200000 -0.050000 0.836245
v 0.979296 0.050000 -0.200000
v 0.979296 -0.050000 -0.200000
v 0.979296 0.050000 0.200000
v 0.979296 -0.050000 0.200000
v -0.979296 0.050000 0.200000
v -0.979296 -0.050000 0.200000
v -0.979296 0.050000 -0.200000
v -0.979296 -0.050000 -0.200000
v -0.836245 0.050000 0.200000
v -0.836245 0.050000 -0.200000
v 0.836245 0.050000 0.200000
v 0.836245 0.050000 -0.200000
v -0.836245 -0.050000 0.200000
v -0.836245 -0.050000 -0.200000
v 0.836245 -0.050000 0.200000
v 0.836245 -0.050000 -0.200000
v -0.555570 -0.050000 0.831470
v -0.707107 -0.050000 0.707107
v -0.831469 -0.050000 0.555570
v -0.923880 -0.050000 0.382684
v -0.796797 -0.050000 0.330044
v -0.717098 -0.050000 0.479150
v -0.979296 -0.050000 0.200000
v -0.836245 -0.050000 0.200000
v -0.609842 -0.050000 0.609842
v -0.479150 -0.050000 0.717098
v -0.707107 -0.050000 0.707107
v -0.831469 -0.050000 0.555570
v -0.923880 -0.050000 0.382684
v -0.979296 -0.050000 0.200000
v -0.836245 -0.050000 0.200000
v -0.796797 -0.050000 0.330044
v -0.717098 -0.050000 0.479150
v -0.609842 -0.050000 0.609842
vt 0.345495 0.683755
vt 0.375265 0.371867
vt 0.375265 0.683755
vt 0.314924 0.371867
vt 0.345495 0.371867
vt 0.314924 0.683755
vt 0.284354 0.371867
vt 0.284354 0.683755
vt 0.253783 0.371867
vt 0.253783 0.683755
vt 0.223213 0.371867
vt 0.193443 0.683755
vt 0.193442 0.371867
vt 0.687936 0.567988
vt 0.999797 0.538220
vt 0.999797 0.567988
vt 0.687936 0.598555
vt 0.999797 0.598555
vt 0.687936 0.629123
vt 0.999797 0.629123
vt 0.687936 0.659691
vt 0.999797 0.659691
vt 0.687936 0.690259
vt 0.999798 0.720027
vt 0.687936 0.720027
vt 0.100297 0.096643
vt 0.353194 0.301761
vt 0.300406 0.322464
vt 0.248759 0.336791
vt 0.088749 0.090825
vt 0.062870 0.075023
vt 0.087320 0.089189
vt 0.062495 0.075459
vt 0.039609 0.050629
vt 0.037869 0.047736
vt 0.024270 0.016911
vt 0.021227 0.000202
vt 0.015512 0.071290
vt 0.687531 0.375543
vt 0.375670 0.345775
vt 0.687531 0.345775
vt 0.375670 0.406110
vt 0.375670 0.375542
vt 0.687531 0.406111
vt 0.375670 0.436678
vt 0.687531 0.436679
vt 0.375670 0.467246
vt 0.687531 0.467246
vt 0.375670 0.497814
vt 0.456528 0.026455
vt 0.476344 0.034663
vt 0.468691 0.059891
vt 0.489734 0.116548
vt 0.508187 0.086127
vt 0.510771 0.112363
vt 0.531814 0.116548
vt 0.550266 0.086127
vt 0.552850 0.112363
vt 0.154303 0.343724
vt 0.199718 0.342451
vt 0.687531 0.497814
vt 0.375670 0.527582
vt 0.582766 0.026455
vt 0.602582 0.034663
vt 0.594930 0.059891
vt 0.050512 0.050988
vt 0.017692 0.054497
vt 0.097661 0.368664
vt 0.069621 0.369931
vt 0.066617 0.347205
vt 0.498607 0.198710
vt 0.518424 0.206918
vt 0.510771 0.232146
vt 0.042351 0.375554
vt 0.027681 0.684471
vt 0.023635 0.381758
vt 0.073735 0.684057
vt 0.099413 0.683908
vt 0.125901 0.370196
vt 0.125081 0.683805
vt 0.153264 0.375168
vt 0.150658 0.683736
vt 0.171135 0.683755
vt 0.687936 0.494724
vt 0.999797 0.515914
vt 0.687936 0.515914
vt 0.999797 0.494724
vt 0.687936 0.468361
vt 0.999797 0.468361
vt 0.687936 0.441997
vt 0.999797 0.441997
vt 0.687936 0.415634
vt 0.999797 0.415634
vt 0.687936 0.389271
vt 0.999797 0.389271
vt 0.999798 0.368081
vt 0.099973 0.077553
vt 0.396362 0.279008
vt 0.115937 0.090691
vt 0.441319 0.212600
vt 0.089924 0.061382
vt 0.091965 0.068599
vt 0.089930 0.061787
vt 0.091884 0.062190
vt 0.086888 0.057139
vt 0.085098 0.057365
vt 0.074108 0.052896
vt 0.072413 0.053292
vt 0.052536 0.050217
vt 0.375670 0.676531
vt 0.687531 0.697721
vt 0.375670 0.697721
vt 0.687531 0.650167
vt 0.375670 0.650168
vt 0.687531 0.623804
vt 0.375670 0.623804
vt 0.687531 0.597441
vt 0.375670 0.597441
vt 0.687531 0.571078
vt 0.375670 0.571078
vt 0.687531 0.549888
vt 0.687531 0.527582
vt 0.000202 0.684476
vt 0.687936 0.345775
vt 0.687936 0.368081
vt 0.687531 0.720027
vt 0.172188 0.381379
vt 0.051525 0.050599
vt 0.531814 0.227961
vt 0.552850 0.232146
vt 0.550266 0.258382
vt 0.107716 0.339996
vt 0.029525 0.115978
vt 0.440856 0.073313
vt 0.444254 0.117185
vt 0.000202 0.055811
vt 0.435439 0.040602
vt 0.444254 0.163881
vt 0.456528 0.198710
vt 0.476344 0.206918
vt 0.468691 0.232146
vt 0.223213 0.683755
vt 0.687936 0.538220
vt 0.999798 0.690259
vt 0.116617 0.099686
vt 0.087424 0.091423
vt 0.486333 0.156280
vt 0.470561 0.172052
vt 0.456528 0.145800
vt 0.447655 0.116548
vt 0.468691 0.112364
vt 0.444659 0.086127
vt 0.466107 0.086127
vt 0.447655 0.055707
vt 0.470560 0.000202
vt 0.486333 0.015975
vt 0.476344 0.137591
vt 0.512640 0.172052
vt 0.498607 0.145799
vt 0.528413 0.156280
vt 0.518424 0.137591
vt 0.486738 0.086127
vt 0.489734 0.055707
vt 0.510771 0.059891
vt 0.498607 0.026455
vt 0.512640 0.000202
vt 0.528413 0.015975
vt 0.518424 0.034663
vt 0.554719 0.172052
vt 0.540687 0.145799
vt 0.570492 0.156280
vt 0.560503 0.137591
vt 0.528817 0.086127
vt 0.531814 0.055707
vt 0.552850 0.059891
vt 0.540687 0.026455
vt 0.554719 0.000202
vt 0.570492 0.015975
vt 0.560503 0.034663
vt 0.612571 0.156280
vt 0.596799 0.172052
vt 0.582766 0.145799
vt 0.573893 0.116548
vt 0.594930 0.112364
vt 0.570897 0.086127
vt 0.592346 0.086127
vt 0.573893 0.055707
vt 0.596799 0.000202
vt 0.612571 0.015975
vt 0.602582 0.137591
vt 0.081808 0.060547
vt 0.087998 0.061372
vt 0.083311 0.057594
vt 0.063244 0.074576
vt 0.070724 0.053693
vt 0.041341 0.053510
vt 0.027289 0.033597
vt 0.033555 0.353029
vt 0.003001 0.372256
vt 0.097314 0.345775
vt 0.128626 0.346749
vt 0.162136 0.352117
vt 0.528413 0.328534
vt 0.512640 0.344307
vt 0.498607 0.318054
vt 0.489734 0.288803
vt 0.510771 0.284618
vt 0.486738 0.258382
vt 0.508187 0.258382
vt 0.489734 0.227961
vt 0.512640 0.172457
vt 0.528413 0.188230
vt 0.518424 0.309846
vt 0.048158 0.684244
vt 0.432138 0.259863
vt 0.687531 0.676530
vt 0.375670 0.549888
vt 0.999798 0.345775
vt 0.375670 0.720027
vt 0.554719 0.172457
vt 0.570492 0.188230
vt 0.540687 0.198710
vt 0.560503 0.206918
vt 0.531814 0.288803
vt 0.528817 0.258382
vt 0.554719 0.344307
vt 0.540687 0.318054
vt 0.570492 0.328534
vt 0.552850 0.284618
vt 0.560503 0.309846
vt 0.085820 0.345370
vt 0.432142 0.009707
vt 0.486333 0.328534
vt 0.470560 0.344307
vt 0.456528 0.318054
vt 0.447655 0.288803
vt 0.468691 0.284618
vt 0.444659 0.258382
vt 0.466107 0.258382
vt 0.447655 0.227961
vt 0.470560 0.172457
vt 0.486333 0.188230
vt 0.476344 0.309846
vn 0.2903 0.0000 -0.9569
vn 0.4714 0.0000 -0.8819
vn 0.6344 0.0000 -0.7730
vn 0.7730 0.0000 -0.6344
vn 0.8819 0.0000 -0.4714
vn 0.9569 0.0000 -0.2903
vn 0.9569 0.0000 0.2903
vn 0.8819 0.0000 0.4714
vn 0.7730 0.0000 0.6344
vn 0.6344 0.0000 0.7730
vn 0.4714 0.0000 0.8819
vn 0.2903 0.0000 0.9569
vn -0.2903 0.0000 0.9569
vn -0.4714 0.0000 0.8819
vn 0.0000 0.0000 1.0000
vn -0.9569 0.0000 -0.2903
vn -0.8819 0.0000 -0.4714
vn -0.7730 0.0000 -0.6344
vn -0.6344 0.0000 -0.7730
vn -0.4714 0.0000 -0.8819
vn -0.6344 0.0000 0.7730
vn 0.0000 1.0000 0.0000
vn -0.8819 0.0000 0.4714
vn -0.7730 0.0000 0.6344
vn -0.2903 0.0000 -0.9569
vn 0.0000 -1.0000 -0.0000
vn -0.9569 0.0000 0.2903
vn 1.0000 0.0000 0.0000
vn -1.0000 0.0000 0.0000
vn 0.0000 0.0000 -1.0000
usemtl Material
s off
f 2/1/1 82/2/1 81/3/1
f 2/1/2 3/4/2 1/5/2
f 4/6/3 5/7/3 3/4/3
f 6/8/4 7/9/4 5/7/4
f 8/10/5 9/11/5 7/9/5
f 9/11/6 97/12/6 98/13/6
f 11/14/7 99/15/7 12/16/7
f 12/16/8 13/17/8 11/14/8
f 14/18/9 15/19/9 13/17/9
f 16/20/10 17/21/10 15/19/10
f 18/22/11 19/23/11 17/21/11
f 19/23/12 83/24/12 84/25/12
f 21/26/13 85/27/13 22/28/13
f 21/26/14 24/29/14 113/30/14
f 113/30/15 25/31/15 23/32/15
f 114/33/15 27/34/15 25/31/15
f 115/35/15 29/36/15 27/34/15
f 116/37/15 102/38/15 29/36/15
f 32/39/16 104/40/16 103/41/16
f 32/39/17 33/42/17 31/43/17
f 34/44/18 35/45/18 33/42/18
f 36/46/19 37/47/19 35/45/19
f 38/48/20 39/49/20 37/47/20
f 24/29/21 114/33/21 113/30/21
f 32/50/22 57/51/22 41/52/22
f 28/53/22 47/54/22 45/55/22
f 8/56/22 55/57/22 54/58/22
f 28/59/23 116/37/23 115/35/23
f 26/60/24 115/35/24 114/33/24
f 40/61/25 92/62/25 39/49/25
f 39/63/26 78/64/26 79/65/26
f 127/66/15 126/67/15 102/38/15
f 62/68/26 65/69/26 3/70/26
f 19/71/26 66/72/26 68/73/26
f 61/74/13 87/75/13 95/76/13
f 53/77/14 61/74/14 65/69/14
f 55/78/21 65/69/21 62/68/21
f 55/78/24 64/79/24 54/80/24
f 54/80/23 63/81/23 56/82/23
f 63/81/27 108/83/27 56/82/27
f 69/84/16 107/85/16 111/86/16
f 60/87/17 70/88/17 50/89/17
f 50/89/18 67/90/18 51/91/18
f 51/91/19 68/92/19 49/93/19
f 49/93/20 66/94/20 52/95/20
f 66/94/25 90/96/25 52/95/25
f 74/97/1 91/98/1 94/99/1
f 46/100/2 74/97/2 75/101/2
f 122/102/15 72/103/15 121/104/15
f 118/105/15 72/103/15 73/106/15
f 117/107/15 73/106/15 71/108/15
f 71/108/15 120/109/15 117/107/15
f 76/110/7 106/111/7 110/112/7
f 41/113/8 76/110/8 80/114/8
f 43/115/9 80/114/9 77/116/9
f 42/117/10 77/116/10 79/118/10
f 44/119/11 79/118/11 78/120/11
f 78/120/12 89/121/12 44/119/12
f 85/27/28 94/99/28 91/98/28
f 89/121/28 92/62/28 88/122/28
f 81/123/29 95/76/29 87/75/29
f 84/124/29 90/96/29 96/125/29
f 103/126/15 110/112/15 106/111/15
f 98/13/15 108/83/15 112/127/15
f 99/15/30 111/86/30 107/85/30
f 102/38/15 120/109/15 109/128/15
f 14/129/22 50/130/22 51/131/22
f 30/132/27 119/133/27 116/37/27
f 48/134/5 118/105/5 117/107/5
f 45/135/4 121/104/4 118/105/4
f 119/136/30 105/137/30 120/109/30
f 117/107/6 105/137/6 48/134/6
f 46/100/3 121/104/3 47/138/3
f 125/139/26 128/140/26 129/141/26
f 2/1/1 1/5/1 82/2/1
f 2/1/2 4/6/2 3/4/2
f 4/6/3 6/8/3 5/7/3
f 6/8/4 8/10/4 7/9/4
f 8/10/5 10/142/5 9/11/5
f 9/11/6 10/142/6 97/12/6
f 11/14/7 100/143/7 99/15/7
f 12/16/8 14/18/8 13/17/8
f 14/18/9 16/20/9 15/19/9
f 16/20/10 18/22/10 17/21/10
f 18/22/11 20/144/11 19/23/11
f 19/23/12 20/144/12 83/24/12
f 21/26/13 86/145/13 85/27/13
f 21/26/14 22/28/14 24/29/14
f 113/30/15 23/146/15 21/26/15
f 113/30/15 114/33/15 25/31/15
f 114/33/15 115/35/15 27/34/15
f 115/35/15 116/37/15 29/36/15
f 116/37/15 119/133/15 102/38/15
f 32/39/16 31/43/16 104/40/16
f 32/39/17 34/44/17 33/42/17
f 34/44/18 36/46/18 35/45/18
f 36/46/19 38/48/19 37/47/19
f 38/48/20 40/61/20 39/49/20
f 24/29/21 26/60/21 114/33/21
f 89/147/22 88/148/22 40/149/22
f 40/149/22 38/150/22 42/151/22
f 38/150/22 36/152/22 43/153/22
f 36/152/22 34/154/22 43/153/22
f 34/154/22 32/50/22 41/52/22
f 43/153/22 34/154/22 41/52/22
f 32/50/22 103/155/22 106/156/22
f 32/50/22 106/156/22 57/51/22
f 38/150/22 43/153/22 42/151/22
f 44/157/22 89/147/22 40/149/22
f 42/151/22 44/157/22 40/149/22
f 101/158/22 30/159/22 105/160/22
f 30/159/22 28/53/22 48/161/22
f 105/160/22 30/159/22 48/161/22
f 28/53/22 26/162/22 47/54/22
f 26/162/22 24/163/22 46/164/22
f 24/163/22 22/165/22 46/164/22
f 22/165/22 85/166/22 91/167/22
f 46/164/22 22/165/22 58/168/22
f 91/167/22 58/168/22 22/165/22
f 26/162/22 46/164/22 47/54/22
f 45/55/22 48/161/22 28/53/22
f 97/169/22 10/170/22 108/171/22
f 10/170/22 8/56/22 56/172/22
f 108/171/22 10/170/22 56/172/22
f 8/56/22 6/173/22 55/57/22
f 6/173/22 4/174/22 53/175/22
f 4/174/22 2/176/22 53/175/22
f 2/176/22 81/177/22 87/178/22
f 53/175/22 2/176/22 59/179/22
f 87/178/22 59/179/22 2/176/22
f 6/173/22 53/175/22 55/57/22
f 54/58/22 56/172/22 8/56/22
f 28/59/23 30/132/23 116/37/23
f 26/60/24 28/59/24 115/35/24
f 40/61/25 88/122/25 92/62/25
f 110/180/26 104/181/26 31/182/26
f 31/182/26 33/183/26 80/184/26
f 33/183/26 35/185/26 77/186/26
f 35/185/26 37/187/26 77/186/26
f 37/187/26 39/63/26 79/65/26
f 77/186/26 37/187/26 79/65/26
f 39/63/26 92/188/26 93/189/26
f 39/63/26 93/189/26 78/64/26
f 33/183/26 77/186/26 80/184/26
f 76/190/26 110/180/26 31/182/26
f 80/184/26 76/190/26 31/182/26
f 72/103/15 75/191/15 130/192/15
f 72/103/15 130/192/15 129/193/15
f 123/194/15 23/32/15 25/31/15
f 73/106/15 72/103/15 129/193/15
f 123/194/15 25/31/15 27/34/15
f 73/106/15 129/193/15 128/195/15
f 124/196/15 123/194/15 27/34/15
f 71/108/15 73/106/15 128/195/15
f 109/128/15 71/108/15 128/195/15
f 124/196/15 27/34/15 29/36/15
f 125/197/15 124/196/15 29/36/15
f 109/128/15 128/195/15 127/66/15
f 125/197/15 29/36/15 102/38/15
f 102/38/15 109/128/15 127/66/15
f 126/67/15 125/197/15 102/38/15
f 61/74/26 95/76/26 1/198/26
f 95/76/26 82/199/26 1/198/26
f 1/198/26 3/70/26 61/74/26
f 3/70/26 5/200/26 62/68/26
f 5/200/26 7/201/26 64/79/26
f 7/201/26 9/202/26 64/79/26
f 9/202/26 98/13/26 112/127/26
f 64/79/26 9/202/26 63/81/26
f 112/127/26 63/81/26 9/202/26
f 5/200/26 64/79/26 62/68/26
f 65/69/26 61/74/26 3/70/26
f 111/203/26 100/204/26 11/205/26
f 11/205/26 13/206/26 70/207/26
f 13/206/26 15/208/26 67/209/26
f 15/208/26 17/210/26 67/209/26
f 17/210/26 19/71/26 68/73/26
f 67/209/26 17/210/26 68/73/26
f 19/71/26 84/211/26 96/212/26
f 19/71/26 96/212/26 66/72/26
f 13/206/26 67/209/26 70/207/26
f 69/213/26 111/203/26 11/205/26
f 70/207/26 69/213/26 11/205/26
f 61/74/13 59/214/13 87/75/13
f 53/77/14 59/214/14 61/74/14
f 55/78/21 53/77/21 65/69/21
f 55/78/24 62/68/24 64/79/24
f 54/80/23 64/79/23 63/81/23
f 63/81/27 112/127/27 108/83/27
f 69/84/16 60/87/16 107/85/16
f 60/87/17 69/84/17 70/88/17
f 50/89/18 70/88/18 67/90/18
f 51/91/19 67/90/19 68/92/19
f 49/93/20 68/92/20 66/94/20
f 66/94/25 96/125/25 90/96/25
f 74/97/1 58/215/1 91/98/1
f 46/100/2 58/215/2 74/97/2
f 75/101/15 122/102/15 46/100/15
f 122/102/15 75/191/15 72/103/15
f 118/105/15 121/104/15 72/103/15
f 117/107/15 118/105/15 73/106/15
f 71/108/15 109/128/15 120/109/15
f 76/110/7 57/216/7 106/111/7
f 41/113/8 57/216/8 76/110/8
f 43/115/9 41/113/9 80/114/9
f 42/117/10 43/115/10 77/116/10
f 44/119/11 42/117/11 79/118/11
f 78/120/12 93/217/12 89/121/12
f 85/27/28 86/145/28 94/99/28
f 89/121/28 93/217/28 92/62/28
f 81/123/29 82/199/29 95/76/29
f 84/124/29 83/218/29 90/96/29
f 103/126/15 104/219/15 110/112/15
f 98/13/15 97/12/15 108/83/15
f 99/15/30 100/143/30 111/86/30
f 102/38/15 119/136/15 120/109/15
f 99/220/22 107/221/22 12/222/22
f 107/221/22 60/223/22 12/222/22
f 60/223/22 50/130/22 12/222/22
f 14/129/22 12/222/22 50/130/22
f 18/224/22 16/225/22 51/131/22
f 16/225/22 14/129/22 51/131/22
f 83/226/22 20/227/22 90/228/22
f 20/227/22 18/224/22 49/229/22
f 52/230/22 90/228/22 20/227/22
f 49/229/22 52/230/22 20/227/22
f 51/131/22 49/229/22 18/224/22
f 30/132/27 101/231/27 119/133/27
f 48/134/5 45/135/5 118/105/5
f 45/135/4 47/138/4 121/104/4
f 119/136/30 101/232/30 105/137/30
f 117/107/6 120/109/6 105/137/6
f 46/100/3 122/102/3 121/104/3
f 94/233/26 86/234/26 21/235/26
f 21/235/26 23/236/26 75/237/26
f 23/236/26 123/238/26 130/239/26
f 123/238/26 124/240/26 130/239/26
f 124/240/26 125/139/26 129/141/26
f 130/239/26 124/240/26 129/141/26
f 125/139/26 126/241/26 127/242/26
f 125/139/26 127/242/26 128/140/26
f 23/236/26 130/239/26 75/237/26
f 74/243/26 94/233/26 21/235/26
f 75/237/26 74/243/26 21/235/26
