# Blender v3.1.2 OBJ File: 'star.blend'
# www.blender.org
mtllib star.mtl
o 立方体_立方体.001
v -0.382887 -0.638628 1.232449
v -0.429869 0.861986 0.746995
v 0.382887 -0.638628 1.232449
v 0.335905 0.861986 0.746995
v -0.439024 -1.540511 0.000000
v -0.382887 2.397211 0.000000
v 0.426274 -1.540511 0.000000
v 0.339507 2.397211 0.000000
v -0.382887 0.532127 2.456794
v 0.382887 0.532127 2.456794
v 0.399740 0.152902 0.000000
v -0.516923 0.152902 0.000000
v -0.382887 -2.414253 1.601100
v 0.382887 -2.414253 1.601100
v -0.382887 -0.638628 -1.232449
v -0.429869 0.861986 -0.746995
v 0.382887 -0.638628 -1.232449
v 0.335905 0.861986 -0.746995
v -0.382887 0.532127 -2.456794
v 0.382887 0.532127 -2.456794
v -0.382887 -2.414253 -1.601100
v 0.382887 -2.414253 -1.601100
vt 0.381180 0.628556
vt 0.469672 0.714256
vt 0.374977 0.999921
vt 0.397326 0.000079
vt 0.264591 0.195513
vt 0.130224 0.049734
vt 0.219029 0.546432
vt 0.197844 0.758668
vt 0.000079 0.487800
vt 0.578681 0.299746
vt 0.628834 0.044190
vt 0.372800 0.255450
vt 0.348716 0.344027
vt 0.223278 0.302548
vt 0.252557 0.414026
vt 0.028768 0.244128
vt 0.183800 0.407829
vt 0.426589 0.539371
vt 0.628834 0.551440
vt 0.361067 0.458115
vt 0.355344 0.476678
vt 0.291017 0.476525
vt 0.323415 0.500677
vt 0.398845 0.394911
vt 0.321850 0.437542
vt 0.286228 0.462355
vn 0.9951 0.0984 -0.0084
vn 0.0000 0.9819 0.1894
vn 0.9995 0.0063 0.0305
vn 0.0000 0.4375 0.8992
vn -0.9961 0.0777 0.0424
vn -0.9958 -0.0458 0.0789
vn 0.0000 -0.7227 0.6911
vn 0.9996 0.0157 0.0237
vn 0.0000 0.2033 0.9791
vn 0.0000 -0.8778 -0.4790
vn -0.9992 0.0082 0.0395
vn 0.9978 0.0268 -0.0599
vn 0.0000 0.9819 -0.1894
vn 0.9995 0.0063 -0.0305
vn 0.0000 0.4375 -0.8992
vn -0.9961 0.0777 -0.0424
vn -0.9956 -0.0677 -0.0648
vn 0.0000 -0.7227 -0.6911
vn 0.9996 0.0157 -0.0237
vn 0.0000 0.2033 -0.9791
vn 0.0000 -0.8778 0.4790
vn -0.9992 0.0082 -0.0395
vn 0.9978 0.0268 0.0599
vn -0.9964 0.0595 0.0596
vn -0.9956 -0.0677 0.0648
vn 0.9999 -0.0086 0.0082
vn 0.9951 0.0984 0.0084
vn -0.9964 0.0595 -0.0596
vn -0.9958 -0.0458 -0.0789
vn 0.9999 -0.0086 -0.0082
usemtl マテリアル
s off
f 11/1/1 4/2/1 10/3/1
f 4/4/2 9/5/2 10/6/2
f 7/7/3 3/8/3 14/9/3
f 6/10/4 4/4/4 8/11/4
f 2/12/5 12/13/5 9/5/5
f 1/14/6 12/13/6 5/15/6
f 10/6/7 1/14/7 3/16/7
f 11/1/8 3/8/8 7/7/8
f 1/14/9 14/9/9 3/16/9
f 7/7/10 13/17/10 5/15/10
f 1/14/11 5/15/11 13/17/11
f 11/1/12 18/18/12 8/19/12
f 19/20/13 18/18/13 20/21/13
f 7/7/14 22/22/14 17/23/14
f 18/18/15 6/10/15 8/19/15
f 12/13/16 16/24/16 19/20/16
f 15/25/17 12/13/17 19/20/17
f 15/25/18 20/21/18 17/23/18
f 17/23/19 11/1/19 7/7/19
f 22/22/20 15/25/20 17/23/20
f 21/26/21 7/7/21 5/15/21
f 15/25/22 21/26/22 5/15/22
f 11/1/23 8/19/23 4/2/23
f 4/4/2 2/12/2 9/5/2
f 6/10/4 2/12/4 4/4/4
f 2/12/24 6/10/24 12/13/24
f 1/14/25 9/5/25 12/13/25
f 10/6/7 9/5/7 1/14/7
f 11/1/26 10/3/26 3/8/26
f 1/14/9 13/17/9 14/9/9
f 7/7/10 14/9/10 13/17/10
f 11/1/27 20/21/27 18/18/27
f 19/20/13 16/24/13 18/18/13
f 18/18/15 16/24/15 6/10/15
f 12/13/28 6/10/28 16/24/28
f 15/25/29 5/15/29 12/13/29
f 15/25/18 19/20/18 20/21/18
f 17/23/30 20/21/30 11/1/30
f 22/22/20 21/26/20 15/25/20
f 21/26/21 22/22/21 7/7/21
