# Blender v3.1.2 OBJ File: 'GoalFrag.blend'
# www.blender.org
mtllib GoalFrag.mtl
o 立方体
v -1.906947 -0.158516 0.517146
v -1.906947 -0.158516 0.089154
v 0.093053 -1.323334 0.517146
v 0.093053 1.006302 0.517146
v 0.093053 -1.323334 0.089154
v 0.093053 1.006302 0.089154
v 0.783827 1.006302 0.089154
v 0.783827 -1.323334 0.089154
v 0.783827 -1.323334 0.517146
v 0.783827 1.006302 0.517146
vt 0.371735 0.999938
vt 0.157707 0.825275
vt 0.383049 0.723918
vt 0.356419 0.535701
vt 0.163557 0.507144
vt 0.192924 0.450675
vt 0.359698 0.329693
vt 0.219554 0.000062
vt 0.287987 0.267882
vt 0.124491 0.182855
vt 0.029429 0.365648
vt 0.125703 0.733019
vt 0.308319 0.574062
vt 0.312373 0.685644
vt 0.000062 0.422118
vt 0.383049 0.085088
vn 0.0000 0.0000 -1.0000
vn 0.0000 0.0000 1.0000
vn -0.5033 -0.8641 0.0000
vn -0.5033 0.8641 0.0000
vn 1.0000 0.0000 0.0000
vn 0.0000 -1.0000 0.0000
vn 0.0000 1.0000 0.0000
usemtl Material.001
s off
f 2/1/1 6/2/1 5/3/1
f 3/4/2 10/5/2 4/6/2
f 3/4/2 4/6/2 1/7/2
f 5/8/3 1/9/3 2/10/3
f 2/10/4 4/6/4 6/11/4
f 7/12/5 9/13/5 8/14/5
f 5/3/6 9/13/6 3/4/6
f 4/6/7 7/15/7 6/11/7
f 6/2/1 8/14/1 5/3/1
f 3/4/2 9/13/2 10/5/2
f 5/8/3 3/16/3 1/9/3
f 2/10/4 1/9/4 4/6/4
f 7/12/5 10/5/5 9/13/5
f 5/3/6 8/14/6 9/13/6
f 4/6/7 10/5/7 7/15/7
f 6/2/1 7/12/1 8/14/1
