# Blender v3.1.2 OBJ File: 'bombSolider.blend'
# www.blender.org
mtllib bombSolider.mtl
o 立方体_立方体.011
v 0.328498 2.692493 -0.030465
v 0.247584 2.455446 -0.030465
v 0.328498 2.692493 0.076045
v 0.247584 2.455446 0.076045
v 0.227698 2.726901 -0.030465
v 0.146784 2.489853 -0.030465
v 0.227698 2.726901 0.076045
v 0.146784 2.489853 0.076045
v 0.197557 2.439342 -0.404942
v 0.197557 2.498158 -0.404942
v 0.281615 2.439342 -0.396663
v 0.281615 2.498158 -0.396663
v 0.362443 2.439342 -0.372145
v 0.362443 2.498158 -0.372145
v 0.436934 2.439342 -0.332328
v 0.436934 2.498158 -0.332328
v 0.502226 2.439342 -0.278744
v 0.502226 2.498158 -0.278744
v 0.555810 2.439342 -0.213452
v 0.555810 2.498158 -0.213452
v 0.595627 2.439342 -0.138961
v 0.595627 2.498158 -0.138961
v 0.620146 2.439342 -0.058133
v 0.620146 2.498158 -0.058133
v 0.628425 2.439342 0.025925
v 0.628425 2.498158 0.025925
v 0.620146 2.439342 0.109984
v 0.620146 2.498158 0.109984
v 0.595627 2.439342 0.190811
v 0.595627 2.498158 0.190811
v 0.555810 2.439342 0.265303
v 0.555810 2.498158 0.265303
v 0.502226 2.439342 0.330595
v 0.502226 2.498158 0.330595
v 0.436934 2.439342 0.384179
v 0.436934 2.498158 0.384179
v 0.362443 2.439342 0.423996
v 0.362443 2.498158 0.423996
v 0.281615 2.439342 0.448514
v 0.281615 2.498158 0.448514
v 0.197557 2.439342 0.456793
v 0.197557 2.498158 0.456793
v 0.113498 2.439342 0.448514
v 0.113498 2.498158 0.448514
v 0.032671 2.439342 0.423996
v 0.032671 2.498158 0.423996
v -0.041821 2.439342 0.384179
v -0.041821 2.498158 0.384179
v -0.107113 2.439342 0.330595
v -0.107113 2.498158 0.330595
v -0.160697 2.439342 0.265303
v -0.160697 2.498158 0.265303
v -0.200513 2.439342 0.190812
v -0.200514 2.498158 0.190812
v -0.225032 2.439342 0.109984
v -0.225032 2.498158 0.109984
v -0.233311 2.439342 0.025925
v -0.233311 2.498158 0.025925
v -0.225032 2.439342 -0.058133
v -0.225032 2.498158 -0.058133
v -0.200513 2.439342 -0.138961
v -0.200514 2.498158 -0.138961
v -0.160697 2.439342 -0.213452
v -0.160697 2.498158 -0.213452
v -0.107113 2.439342 -0.278744
v -0.107113 2.498158 -0.278744
v -0.041821 2.439342 -0.332328
v -0.041821 2.498158 -0.332328
v 0.032671 2.439342 -0.372145
v 0.032671 2.498158 -0.372145
v 0.113499 2.439342 -0.396663
v 0.113498 2.498158 -0.396663
v -0.460589 0.900649 0.621960
v -0.460589 2.092717 0.621960
v -0.460589 0.900649 -0.570109
v -0.460590 2.092717 -0.570109
v 0.731479 0.900649 0.621960
v 0.731479 2.092717 0.621960
v 0.731479 0.900649 -0.570109
v 0.731479 2.092717 -0.570109
v -0.547530 0.813708 -0.327702
v -0.591202 0.770036 0.025925
v -0.547530 0.813708 0.379552
v -0.547530 1.143056 0.708900
v -0.591202 1.496683 0.752572
v -0.547530 1.850310 0.708900
v -0.547530 2.179658 0.379552
v -0.591202 2.223330 0.025925
v -0.547530 2.179658 -0.327702
v -0.547530 1.850310 -0.657050
v -0.591202 1.496683 -0.700721
v -0.547530 1.143056 -0.657050
v 0.489072 0.813708 -0.657050
v 0.135445 0.770036 -0.700721
v -0.218182 0.813708 -0.657050
v -0.218182 2.179658 -0.657050
v 0.135445 2.223329 -0.700721
v 0.489072 2.179658 -0.657050
v 0.818420 1.850310 -0.657050
v 0.862091 1.496683 -0.700721
v 0.818420 1.143056 -0.657050
v 0.818420 0.813708 0.379552
v 0.862091 0.770036 0.025925
v 0.818420 0.813708 -0.327702
v 0.818420 2.179658 -0.327702
v 0.862091 2.223330 0.025925
v 0.818420 2.179658 0.379552
v 0.818420 1.850310 0.708900
v 0.862091 1.496683 0.752572
v 0.818420 1.143056 0.708900
v -0.218182 0.813708 0.708900
v 0.135445 0.770036 0.752572
v 0.489072 0.813708 0.708901
v 0.489072 2.179658 0.708900
v 0.135445 2.223329 0.752572
v -0.218182 2.179658 0.708901
v -0.733561 1.119802 0.402806
v -0.796549 1.496683 0.423052
v -0.733561 1.873564 0.402806
v -0.796549 1.099557 0.025925
v -0.865304 1.496683 0.025925
v -0.796549 1.893809 0.025925
v -0.733561 1.119802 -0.350955
v -0.796549 1.496683 -0.371201
v -0.733561 1.873564 -0.350955
v -0.241436 1.119802 -0.843080
v -0.261681 1.496683 -0.906068
v -0.241436 1.873564 -0.843080
v 0.135445 1.099557 -0.906068
v 0.135445 1.496683 -0.974823
v 0.135445 1.893809 -0.906068
v 0.512326 1.119802 -0.843080
v 0.532571 1.496683 -0.906068
v 0.512326 1.873564 -0.843080
v 1.004451 1.119802 -0.350955
v 1.067438 1.496683 -0.371201
v 1.004451 1.873564 -0.350955
v 1.067438 1.099557 0.025926
v 1.136194 1.496683 0.025925
v 1.067438 1.893809 0.025925
v 1.004451 1.119802 0.402806
v 1.067438 1.496683 0.423052
v 1.004450 1.873564 0.402806
v 0.512326 1.119802 0.894931
v 0.532571 1.496683 0.957919
v 0.512326 1.873564 0.894931
v 0.135445 1.099557 0.957919
v 0.135445 1.496683 1.026674
v 0.135445 1.893809 0.957919
v -0.241436 1.119802 0.894931
v -0.261682 1.496683 0.957919
v -0.241436 1.873564 0.894931
v -0.241436 0.627677 -0.350955
v 0.135445 0.564690 -0.371201
v 0.512326 0.627677 -0.350955
v -0.261682 0.564690 0.025925
v 0.135445 0.495934 0.025925
v 0.532571 0.564690 0.025925
v -0.241436 0.627677 0.402806
v 0.135445 0.564690 0.423052
v 0.512326 0.627677 0.402806
v 0.512326 2.365689 -0.350955
v 0.135445 2.428676 -0.371201
v -0.241436 2.365689 -0.350955
v 0.532571 2.428676 0.025925
v 0.135445 2.497432 0.025925
v -0.261681 2.428676 0.025925
v 0.512326 2.365689 0.402806
v 0.135445 2.428676 0.423052
v -0.241436 2.365689 0.402806
v -0.081539 -0.013458 -0.210224
v -0.081539 0.756530 -0.210224
v -0.081539 -0.013458 -0.623693
v -0.081539 0.756530 -0.623693
v 0.274162 -0.013458 -0.210224
v 0.274162 0.756530 -0.210224
v 0.274162 -0.013458 -0.623693
v 0.274162 0.756530 -0.623693
v -0.081539 -0.013458 0.553740
v -0.081539 0.756530 0.553740
v -0.081539 -0.013458 0.140271
v -0.081539 0.756530 0.140271
v 0.274162 -0.013458 0.553740
v 0.274162 0.756530 0.553740
v 0.274162 -0.013458 0.140271
v 0.274162 0.756530 0.140271
v -0.840861 1.369388 -0.156912
v -0.840861 1.945493 -0.156912
v -0.840861 1.369388 -0.357591
v -0.840861 1.945493 -0.357591
v -0.606390 1.369388 -0.156912
v -0.606390 1.945493 -0.156912
v -0.606390 1.369388 -0.357591
v -0.606390 1.945493 -0.357591
v -0.841356 1.369388 0.365097
v -0.841356 1.945493 0.365097
v -0.841356 1.369388 0.164418
v -0.841356 1.945493 0.164418
v -0.606885 1.369388 0.365097
v -0.606885 1.945493 0.365097
v -0.606885 1.369388 0.164418
v -0.606885 1.945493 0.164418
vt 0.253632 0.712244
vt 0.253632 0.712244
vt 0.253632 0.715854
vt 0.253632 0.713447
vt 0.253632 0.708633
vt 0.253632 0.712244
vt 0.253632 0.711040
vt 0.253632 0.712244
vt 0.679708 0.689615
vt 0.663412 0.692187
vt 0.667001 0.697605
vt 0.684419 0.694137
vt 0.647034 0.691289
vt 0.649213 0.697404
vt 0.631145 0.687030
vt 0.631701 0.693525
vt 0.616248 0.679658
vt 0.615071 0.686114
vt 0.602878 0.669468
vt 0.599991 0.675402
vt 0.591529 0.656811
vt 0.587116 0.661776
vt 0.582488 0.642130
vt 0.576842 0.645790
vt 0.576073 0.625852
vt 0.569351 0.627886
vt 0.572328 0.608669
vt 0.565579 0.608745
vt 0.571812 0.591411
vt 0.565384 0.589684
vt 0.574342 0.574558
vt 0.568655 0.571212
vt 0.579782 0.558671
vt 0.575226 0.553965
vt 0.588056 0.544298
vt 0.584924 0.538581
vt 0.598967 0.531961
vt 0.597402 0.525650
vt 0.612141 0.522142
vt 0.612133 0.515637
vt 0.627145 0.515262
vt 0.628567 0.508887
vt 0.643446 0.511650
vt 0.646101 0.505629
vt 0.660425 0.511513
vt 0.664095 0.505981
vt 0.677398 0.514919
vt 0.681871 0.509947
vt 0.693633 0.521764
vt 0.698730 0.517387
vt 0.708401 0.531823
vt 0.713983 0.528060
vt 0.721067 0.544719
vt 0.726996 0.541554
vt 0.731218 0.559851
vt 0.737326 0.557184
vt 0.738863 0.576632
vt 0.745083 0.574137
vt 0.741797 0.594884
vt 0.748368 0.593729
vt 0.745442 0.575266
vt 0.741678 0.613093
vt 0.748368 0.612463
vt 0.738230 0.630841
vt 0.744964 0.630889
vt 0.731511 0.647417
vt 0.738183 0.648233
vt 0.721796 0.662112
vt 0.728273 0.663778
vt 0.709524 0.674323
vt 0.715643 0.676909
vt 0.659808 0.877727
vt 0.676415 0.874131
vt 0.692059 0.867224
vt 0.706138 0.857272
vt 0.718111 0.844658
vt 0.727518 0.829866
vt 0.733998 0.813465
vt 0.737301 0.796085
vt 0.737301 0.778393
vt 0.733998 0.761070
vt 0.727518 0.744782
vt 0.718111 0.730154
vt 0.706138 0.717749
vt 0.692059 0.708042
vt 0.676415 0.701409
vt 0.659809 0.698102
vt 0.642876 0.698250
vt 0.626269 0.701846
vt 0.610626 0.708752
vt 0.596547 0.718704
vt 0.584574 0.731318
vt 0.575167 0.746110
vt 0.568687 0.762512
vt 0.565384 0.779892
vt 0.565384 0.797584
vt 0.568687 0.814906
vt 0.575167 0.831195
vt 0.584574 0.845823
vt 0.596547 0.858228
vt 0.610626 0.867934
vt 0.626269 0.874568
vt 0.642876 0.877875
vt 0.695285 0.683602
vt 0.700830 0.687152
vt 0.780616 0.147300
vt 0.855380 0.083282
vt 0.800554 0.030352
vt 0.749837 0.114581
vt 0.751636 0.006722
vt 0.723827 0.094973
vt 0.043126 0.083282
vt 0.117889 0.147300
vt 0.148669 0.114581
vt 0.097952 0.030352
vt 0.174679 0.094973
vt 0.146870 0.006722
vt 0.757712 0.217530
vt 0.804364 0.203610
vt 0.738632 0.191595
vt 0.718996 0.167869
vt 0.703056 0.149183
vt 0.692067 0.087555
vt 0.687777 0.134537
vt 0.698816 0.000248
vt 0.206439 0.087555
vt 0.199690 0.000248
vt 0.195450 0.149183
vt 0.210729 0.134537
vt 0.179510 0.167869
vt 0.159874 0.191595
vt 0.094142 0.203610
vt 0.140794 0.217530
vt 0.000248 0.177335
vt 0.898257 0.177335
vt 0.186834 0.233657
vt 0.210033 0.275313
vt 0.224626 0.252690
vt 0.202964 0.211263
vt 0.239220 0.230068
vt 0.216720 0.190289
vt 0.232533 0.315092
vt 0.246289 0.294118
vt 0.262419 0.271724
vt 0.159507 0.257331
vt 0.233530 0.161458
vt 0.262677 0.201396
vt 0.289746 0.248050
vt 0.289379 0.313785
vt 0.308459 0.287851
vt 0.269743 0.337512
vt 0.253803 0.356198
vt 0.215723 0.343923
vt 0.238524 0.370844
vt 0.186576 0.303985
vt 0.274574 0.410408
vt 0.302383 0.498659
vt 0.351301 0.475029
vt 0.300584 0.390800
vt 0.406127 0.422099
vt 0.331364 0.358081
vt 0.596123 0.498659
vt 0.623932 0.410408
vt 0.597921 0.390800
vt 0.547205 0.475029
vt 0.567142 0.358081
vt 0.492379 0.422099
vt 0.242814 0.417826
vt 0.355111 0.301770
vt 0.449005 0.328046
vt 0.543394 0.301770
vt 0.449501 0.328046
vt 0.609127 0.313785
vt 0.590047 0.287851
vt 0.628763 0.337512
vt 0.644703 0.356198
vt 0.655692 0.417826
vt 0.659982 0.370844
vt 0.648942 0.505132
vt 0.249563 0.505132
vt 0.665973 0.315092
vt 0.688473 0.275313
vt 0.673879 0.252690
vt 0.652217 0.294118
vt 0.659286 0.230068
vt 0.636087 0.271723
vt 0.711672 0.233657
vt 0.695542 0.211263
vt 0.681785 0.190288
vt 0.682783 0.343923
vt 0.608760 0.248050
vt 0.635829 0.201396
vt 0.664976 0.161458
vt 0.738999 0.257330
vt 0.711930 0.303985
vt 0.102975 0.279282
vt 0.000248 0.303645
vt 0.058236 0.425337
vt 0.143573 0.347677
vt 0.162345 0.492422
vt 0.194410 0.397070
vt 0.898257 0.303645
vt 0.795530 0.279282
vt 0.754933 0.347677
vt 0.840270 0.425337
vt 0.704095 0.397070
vt 0.736161 0.492422
vt 0.346278 0.226099
vt 0.449005 0.201736
vt 0.391017 0.080044
vt 0.305680 0.157704
vt 0.286908 0.012959
vt 0.254843 0.108311
vt 0.449501 0.201736
vt 0.552228 0.226099
vt 0.592826 0.157704
vt 0.507489 0.080043
vt 0.643663 0.108311
vt 0.611598 0.012959
vt 0.564887 0.505629
vt 0.479317 0.600410
vt 0.478144 0.605458
vt 0.564887 0.708137
vt 0.475146 0.598248
vt 0.474571 0.603034
vt 0.379335 0.523689
vt 0.455607 0.621668
vt 0.350017 0.690902
vt 0.349520 0.505629
vt 0.263950 0.600410
vt 0.262777 0.605458
vt 0.349520 0.708137
vt 0.259779 0.598247
vt 0.259204 0.603034
vt 0.163968 0.523689
vt 0.240240 0.621668
vt 0.134649 0.690902
vt 0.253135 0.863524
vt 0.190640 0.836370
vt 0.186893 0.840069
vt 0.134649 0.881629
vt 0.186614 0.834032
vt 0.184977 0.836736
vt 0.182893 0.832636
vt 0.153258 0.770486
vt 0.253135 0.708633
vt 0.793336 0.540930
vt 0.828566 0.557687
vt 0.762283 0.544648
vt 0.770480 0.549242
vt 0.790655 0.538699
vt 0.748865 0.607354
vt 0.828566 0.798159
vt 0.783870 0.505629
vt 0.772547 0.562487
vn 0.9464 -0.3230 0.0000
vn 0.0000 0.0000 1.0000
vn -0.9464 0.3230 0.0000
vn -0.0000 0.0000 -1.0000
vn 0.3230 0.9464 0.0000
vn -0.3230 -0.9464 0.0000
vn -0.0980 0.0000 0.9952
vn -0.2903 0.0000 0.9569
vn -0.4714 0.0000 0.8819
vn -0.6344 0.0000 0.7730
vn -0.7730 0.0000 0.6344
vn -0.8819 -0.0000 0.4714
vn -0.9569 -0.0000 0.2903
vn -0.9952 0.0000 0.0980
vn -0.9952 0.0000 -0.0980
vn -0.9569 0.0000 -0.2903
vn -0.8819 -0.0000 -0.4714
vn -0.7730 0.0000 -0.6344
vn -0.6344 0.0000 -0.7730
vn -0.4714 0.0000 -0.8819
vn -0.2903 0.0000 -0.9569
vn -0.0980 0.0000 -0.9952
vn 0.0980 0.0000 -0.9952
vn 0.2903 0.0000 -0.9569
vn 0.4714 0.0000 -0.8819
vn 0.6344 0.0000 -0.7730
vn 0.7730 0.0000 -0.6344
vn 0.8819 0.0000 -0.4714
vn 0.9569 0.0000 -0.2903
vn 0.9952 0.0000 -0.0980
vn 0.9952 0.0000 0.0980
vn 0.9569 0.0000 0.2903
vn 0.8819 0.0000 0.4714
vn 0.7730 0.0000 0.6344
vn 0.6344 0.0000 0.7730
vn 0.4714 0.0000 0.8819
vn -0.0000 -1.0000 -0.0000
vn 0.2903 0.0000 0.9569
vn 0.0980 0.0000 0.9952
vn -0.0000 1.0000 -0.0000
vn 0.9708 0.1697 -0.1697
vn 0.9708 -0.1697 -0.1697
vn 0.9708 0.1697 0.1697
vn 0.9708 -0.1697 0.1697
vn 0.7504 0.4674 -0.4674
vn 0.8367 0.1678 -0.5213
vn 0.8367 -0.1678 -0.5213
vn 0.7504 -0.4674 -0.4674
vn 0.8367 -0.5213 -0.1678
vn 0.8367 -0.5213 0.1678
vn 0.7504 -0.4674 0.4674
vn 0.8367 -0.1678 0.5213
vn 0.8367 0.1678 0.5213
vn 0.7504 0.4674 0.4674
vn 0.8367 0.5213 0.1678
vn 0.8367 0.5213 -0.1678
vn 0.1697 0.1697 0.9708
vn 0.1697 -0.1697 0.9708
vn -0.1697 0.1697 0.9708
vn -0.1697 -0.1697 0.9708
vn 0.4674 0.4674 0.7504
vn 0.5213 0.1678 0.8367
vn 0.5213 -0.1678 0.8367
vn 0.4674 -0.4674 0.7504
vn 0.1678 -0.5213 0.8367
vn -0.1678 -0.5213 0.8367
vn -0.4674 -0.4674 0.7504
vn -0.5213 -0.1678 0.8367
vn -0.5213 0.1678 0.8367
vn -0.4674 0.4674 0.7504
vn -0.1678 0.5213 0.8367
vn 0.1678 0.5213 0.8367
vn -0.9708 0.1697 0.1697
vn -0.9708 -0.1697 0.1697
vn -0.9708 0.1697 -0.1697
vn -0.9708 -0.1697 -0.1697
vn -0.7504 0.4674 0.4674
vn -0.8367 0.1678 0.5213
vn -0.8367 -0.1678 0.5213
vn -0.7504 -0.4674 0.4674
vn -0.8367 -0.5213 0.1678
vn -0.8367 -0.5213 -0.1678
vn -0.7504 -0.4674 -0.4674
vn -0.8367 -0.1678 -0.5213
vn -0.8367 0.1678 -0.5213
vn -0.7504 0.4674 -0.4674
vn -0.8367 0.5213 -0.1678
vn -0.8367 0.5213 0.1678
vn -0.1697 0.1697 -0.9708
vn -0.1697 -0.1697 -0.9708
vn 0.1697 0.1697 -0.9708
vn 0.1697 -0.1697 -0.9708
vn -0.4674 0.4674 -0.7504
vn -0.5213 0.1678 -0.8367
vn -0.5213 -0.1678 -0.8367
vn -0.4674 -0.4674 -0.7504
vn -0.1678 -0.5213 -0.8367
vn 0.1678 -0.5213 -0.8367
vn 0.4674 -0.4674 -0.7504
vn 0.5213 -0.1678 -0.8367
vn 0.5213 0.1678 -0.8367
vn 0.4674 0.4674 -0.7504
vn 0.1678 0.5213 -0.8367
vn -0.1678 0.5213 -0.8367
vn 0.1697 0.9708 0.1697
vn -0.1697 0.9708 0.1697
vn 0.1697 0.9708 -0.1697
vn -0.1697 0.9708 -0.1697
vn 0.4674 0.7504 0.4674
vn 0.1678 0.8367 0.5213
vn -0.1678 0.8367 0.5213
vn -0.4674 0.7504 0.4674
vn -0.5213 0.8367 0.1678
vn -0.5213 0.8367 -0.1678
vn -0.4674 0.7504 -0.4674
vn -0.1678 0.8367 -0.5213
vn 0.1678 0.8367 -0.5213
vn 0.4674 0.7504 -0.4674
vn 0.5213 0.8367 -0.1678
vn 0.5213 0.8367 0.1678
vn -0.1697 -0.9708 0.1697
vn 0.1697 -0.9708 0.1697
vn -0.1697 -0.9708 -0.1697
vn 0.1697 -0.9708 -0.1697
vn -0.4674 -0.7504 0.4674
vn -0.1678 -0.8367 0.5213
vn 0.1678 -0.8367 0.5213
vn 0.4674 -0.7504 0.4674
vn 0.5213 -0.8367 0.1678
vn 0.5213 -0.8367 -0.1678
vn 0.4674 -0.7504 -0.4674
vn 0.1678 -0.8367 -0.5213
vn -0.1678 -0.8367 -0.5213
vn -0.4674 -0.7504 -0.4674
vn -0.5213 -0.8367 -0.1678
vn -0.5213 -0.8367 0.1678
vn 1.0000 0.0000 0.0000
vn -1.0000 -0.0000 0.0000
usemtl Material
s off
f 1/1/1 3/2/1 4/3/1 2/4/1
f 3/2/2 7/5/2 8/6/2 4/3/2
f 7/5/3 5/7/3 6/8/3 8/6/3
f 5/7/4 1/1/4 2/4/4 6/8/4
f 3/2/5 1/1/5 5/7/5 7/5/5
f 8/6/6 6/8/6 2/4/6 4/3/6
f 9/9/7 11/10/7 12/11/7 10/12/7
f 11/10/8 13/13/8 14/14/8 12/11/8
f 13/13/9 15/15/9 16/16/9 14/14/9
f 15/15/10 17/17/10 18/18/10 16/16/10
f 17/17/11 19/19/11 20/20/11 18/18/11
f 19/19/12 21/21/12 22/22/12 20/20/12
f 21/21/13 23/23/13 24/24/13 22/22/13
f 23/23/14 25/25/14 26/26/14 24/24/14
f 25/25/15 27/27/15 28/28/15 26/26/15
f 27/27/16 29/29/16 30/30/16 28/28/16
f 29/29/17 31/31/17 32/32/17 30/30/17
f 31/31/18 33/33/18 34/34/18 32/32/18
f 33/33/19 35/35/19 36/36/19 34/34/19
f 35/35/20 37/37/20 38/38/20 36/36/20
f 37/37/21 39/39/21 40/40/21 38/38/21
f 39/39/22 41/41/22 42/42/22 40/40/22
f 41/41/23 43/43/23 44/44/23 42/42/23
f 43/43/24 45/45/24 46/46/24 44/44/24
f 45/45/25 47/47/25 48/48/25 46/46/25
f 47/47/26 49/49/26 50/50/26 48/48/26
f 49/49/27 51/51/27 52/52/27 50/50/27
f 51/51/28 53/53/28 54/54/28 52/52/28
f 53/53/29 55/55/29 56/56/29 54/54/29
f 55/55/30 57/57/30 58/58/30 56/56/30
f 57/57/31 59/59/31 60/60/31 58/61/31
f 59/59/32 61/62/32 62/63/32 60/60/32
f 61/62/33 63/64/33 64/65/33 62/63/33
f 63/64/34 65/66/34 66/67/34 64/65/34
f 65/66/35 67/68/35 68/69/35 66/67/35
f 67/68/36 69/70/36 70/71/36 68/69/36
f 12/72/37 14/73/37 16/74/37 18/75/37 20/76/37 22/77/37 24/78/37 26/79/37 28/80/37 30/81/37 32/82/37 34/83/37 36/84/37 38/85/37 40/86/37 42/87/37 44/88/37 46/89/37 48/90/37 50/91/37 52/92/37 54/93/37 56/94/37 58/95/37 60/96/37 62/97/37 64/98/37 66/99/37 68/100/37 70/101/37 72/102/37 10/103/37
f 69/70/38 71/104/38 72/105/38 70/71/38
f 71/104/39 9/9/39 10/12/39 72/105/39
f 9/9/40 71/104/40 69/70/40 67/68/40 65/66/40 63/64/40 61/62/40 59/59/40 57/57/40 55/55/40 53/53/40 51/51/40 49/49/40 47/47/40 45/45/40 43/43/40 41/41/40 39/39/40 37/37/40 35/35/40 33/33/40 31/31/40 29/29/40 27/27/40 25/25/40 23/23/40 21/21/40 19/19/40 17/17/40 15/15/40 13/13/40 11/10/40
f 117/106/41 120/107/41 121/108/41 118/109/41
f 118/109/42 121/108/42 122/110/42 119/111/42
f 120/112/43 123/113/43 124/114/43 121/115/43
f 121/115/44 124/114/44 125/116/44 122/117/44
f 73/118/45 83/119/45 117/106/45 84/120/45
f 84/120/46 117/106/46 118/109/46 85/121/46
f 85/121/47 118/109/47 119/111/47 86/122/47
f 86/122/48 119/111/48 87/123/48 74/124/48
f 119/111/49 122/110/49 88/125/49 87/123/49
f 122/117/50 125/116/50 89/126/50 88/127/50
f 125/116/51 90/128/51 76/129/51 89/126/51
f 124/114/52 91/130/52 90/128/52 125/116/52
f 123/113/53 92/131/53 91/130/53 124/114/53
f 81/132/54 75/133/54 92/131/54 123/113/54
f 82/134/55 81/132/55 123/113/55 120/112/55
f 83/119/56 82/135/56 120/107/56 117/106/56
f 126/136/57 129/137/57 130/138/57 127/139/57
f 127/139/58 130/138/58 131/140/58 128/141/58
f 129/137/59 132/142/59 133/143/59 130/138/59
f 130/138/60 133/143/60 134/144/60 131/140/60
f 75/133/61 95/145/61 126/136/61 92/131/61
f 92/131/62 126/136/62 127/139/62 91/130/62
f 91/130/63 127/139/63 128/141/63 90/128/63
f 90/128/64 128/141/64 96/146/64 76/129/64
f 128/141/65 131/140/65 97/147/65 96/146/65
f 131/140/66 134/144/66 98/148/66 97/147/66
f 134/144/67 99/149/67 80/150/67 98/148/67
f 133/143/68 100/151/68 99/149/68 134/144/68
f 132/142/69 101/152/69 100/151/69 133/143/69
f 93/153/70 79/154/70 101/152/70 132/142/70
f 94/155/71 93/153/71 132/142/71 129/137/71
f 95/145/72 94/155/72 129/137/72 126/136/72
f 135/156/73 138/157/73 139/158/73 136/159/73
f 136/159/74 139/158/74 140/160/74 137/161/74
f 138/162/75 141/163/75 142/164/75 139/165/75
f 139/165/76 142/164/76 143/166/76 140/167/76
f 79/154/77 104/168/77 135/156/77 101/152/77
f 101/152/78 135/156/78 136/159/78 100/151/78
f 100/151/79 136/159/79 137/161/79 99/149/79
f 99/149/80 137/161/80 105/169/80 80/150/80
f 137/161/81 140/160/81 106/170/81 105/169/81
f 140/167/82 143/166/82 107/171/82 106/172/82
f 143/166/83 108/173/83 78/174/83 107/171/83
f 142/164/84 109/175/84 108/173/84 143/166/84
f 141/163/85 110/176/85 109/175/85 142/164/85
f 102/177/86 77/178/86 110/176/86 141/163/86
f 103/179/87 102/177/87 141/163/87 138/162/87
f 104/168/88 103/180/88 138/157/88 135/156/88
f 144/181/89 147/182/89 148/183/89 145/184/89
f 145/184/90 148/183/90 149/185/90 146/186/90
f 147/182/91 150/187/91 151/188/91 148/183/91
f 148/183/92 151/188/92 152/189/92 149/185/92
f 77/178/93 113/190/93 144/181/93 110/176/93
f 110/176/94 144/181/94 145/184/94 109/175/94
f 109/175/95 145/184/95 146/186/95 108/173/95
f 108/173/96 146/186/96 114/191/96 78/174/96
f 146/186/97 149/185/97 115/192/97 114/191/97
f 149/185/98 152/189/98 116/193/98 115/192/98
f 152/189/99 86/122/99 74/124/99 116/193/99
f 151/188/100 85/121/100 86/122/100 152/189/100
f 150/187/101 84/120/101 85/121/101 151/188/101
f 111/194/102 73/118/102 84/120/102 150/187/102
f 112/195/103 111/194/103 150/187/103 147/182/103
f 113/190/104 112/195/104 147/182/104 144/181/104
f 153/196/105 156/197/105 157/198/105 154/199/105
f 154/199/106 157/198/106 158/200/106 155/201/106
f 156/202/107 159/203/107 160/204/107 157/205/107
f 157/205/108 160/204/108 161/206/108 158/207/108
f 75/133/109 81/132/109 153/196/109 95/145/109
f 95/145/110 153/196/110 154/199/110 94/155/110
f 94/155/111 154/199/111 155/201/111 93/153/111
f 93/153/112 155/201/112 104/168/112 79/154/112
f 155/201/113 158/200/113 103/180/113 104/168/113
f 158/207/114 161/206/114 102/177/114 103/179/114
f 161/206/115 113/190/115 77/178/115 102/177/115
f 160/204/116 112/195/116 113/190/116 161/206/116
f 159/203/117 111/194/117 112/195/117 160/204/117
f 83/119/118 73/118/118 111/194/118 159/203/118
f 82/135/119 83/119/119 159/203/119 156/202/119
f 81/132/120 82/134/120 156/197/120 153/196/120
f 162/208/121 165/209/121 166/210/121 163/211/121
f 163/211/122 166/210/122 167/212/122 164/213/122
f 165/214/123 168/215/123 169/216/123 166/217/123
f 166/217/124 169/216/124 170/218/124 167/219/124
f 80/150/125 105/169/125 162/208/125 98/148/125
f 98/148/126 162/208/126 163/211/126 97/147/126
f 97/147/127 163/211/127 164/213/127 96/146/127
f 96/146/128 164/213/128 89/126/128 76/129/128
f 164/213/129 167/212/129 88/127/129 89/126/129
f 167/219/130 170/218/130 87/123/130 88/125/130
f 170/218/131 116/193/131 74/124/131 87/123/131
f 169/216/132 115/192/132 116/193/132 170/218/132
f 168/215/133 114/191/133 115/192/133 169/216/133
f 107/171/134 78/174/134 114/191/134 168/215/134
f 106/172/135 107/171/135 168/215/135 165/214/135
f 105/169/136 106/170/136 165/209/136 162/208/136
f 171/220/137 173/221/137 174/222/137 172/223/137
f 173/221/2 177/224/2 178/225/2 174/222/2
f 177/224/138 175/226/138 176/227/138 178/225/138
f 175/226/4 171/228/4 172/223/4 176/227/4
f 173/221/40 171/220/40 175/226/40 177/224/40
f 178/225/37 176/227/37 172/223/37 174/222/37
f 179/229/137 181/230/137 182/231/137 180/232/137
f 181/230/2 185/233/2 186/234/2 182/231/2
f 185/233/138 183/235/138 184/236/138 186/234/138
f 183/235/4 179/237/4 180/232/4 184/236/4
f 181/230/40 179/229/40 183/235/40 185/233/40
f 186/234/37 184/236/37 180/232/37 182/231/37
f 187/238/137 189/239/137 190/240/137 188/241/137
f 189/239/2 193/242/2 194/243/2 190/240/2
f 193/242/138 191/244/138 192/245/138 194/243/138
f 191/244/4 187/238/4 188/246/4 192/245/4
f 189/239/40 187/238/40 191/244/40 193/242/40
f 194/243/37 192/245/37 188/241/37 190/240/37
f 195/247/137 197/248/137 198/249/137 196/250/137
f 197/248/2 201/251/2 202/252/2 198/253/2
f 201/251/138 199/254/138 200/255/138 202/252/138
f 199/254/4 195/247/4 196/250/4 200/255/4
f 197/248/40 195/247/40 199/254/40 201/251/40
f 202/252/37 200/255/37 196/250/37 198/249/37
