# Blender v3.1.2 OBJ File: 'Coin.blend'
# www.blender.org
mtllib Coin.mtl
o 円柱
v -0.050000 0.000000 -1.000000
v 0.034621 -0.718543 0.066721
v 0.050000 -0.000000 -1.000000
v 0.034621 0.718543 0.066721
v -0.050000 -0.195090 -0.980785
v -0.030886 -0.718543 0.066721
v -0.030886 0.718543 0.066721
v 0.034621 -0.718543 -0.066721
v 0.050000 -0.195090 -0.980785
v -0.030886 -0.718543 -0.066721
v -0.030886 0.718543 -0.066721
v 0.034621 0.718543 -0.066721
v -0.050000 -0.382683 -0.923880
v 0.050000 -0.382683 -0.923880
v -0.050000 -0.555570 -0.831470
v 0.050000 -0.555570 -0.831470
v -0.050000 -0.707107 -0.707107
v 0.050000 -0.707107 -0.707107
v -0.050000 -0.831470 -0.555570
v 0.050000 -0.831470 -0.555570
v -0.050000 -0.923880 -0.382683
v 0.050000 -0.923880 -0.382683
v -0.050000 -0.980785 -0.195090
v 0.050000 -0.980785 -0.195090
v -0.050000 -1.000000 0.000000
v 0.050000 -1.000000 0.000000
v -0.050000 -0.980785 0.195090
v 0.050000 -0.980785 0.195090
v -0.050000 -0.923880 0.382683
v 0.050000 -0.923880 0.382683
v -0.050000 -0.831470 0.555570
v 0.050000 -0.831470 0.555570
v -0.050000 -0.707107 0.707107
v 0.050000 -0.707107 0.707107
v -0.050000 -0.555570 0.831470
v 0.050000 -0.555570 0.831470
v -0.050000 -0.382683 0.923880
v 0.050000 -0.382683 0.923880
v -0.050000 -0.195090 0.980785
v 0.050000 -0.195090 0.980785
v -0.050000 0.000000 1.000000
v 0.050000 0.000000 1.000000
v -0.050000 0.195090 0.980785
v 0.050000 0.195090 0.980785
v -0.050000 0.382683 0.923880
v 0.050000 0.382683 0.923880
v -0.050000 0.555570 0.831470
v 0.050000 0.555570 0.831470
v -0.050000 0.707107 0.707107
v 0.050000 0.707107 0.707107
v -0.050000 0.831469 0.555570
v 0.050000 0.831469 0.555570
v -0.050000 0.923880 0.382684
v 0.050000 0.923880 0.382684
v -0.050000 0.980785 0.195090
v 0.050000 0.980785 0.195090
v -0.050000 1.000000 -0.000000
v 0.050000 1.000000 -0.000000
v -0.050000 0.980785 -0.195090
v 0.050000 0.980785 -0.195090
v -0.050000 0.923879 -0.382684
v 0.050000 0.923879 -0.382684
v -0.050000 0.831470 -0.555570
v 0.050000 0.831470 -0.555570
v -0.050000 0.707107 -0.707107
v 0.050000 0.707107 -0.707107
v -0.050000 0.555570 -0.831470
v 0.050000 0.555570 -0.831470
v -0.050000 0.382683 -0.923880
v 0.050000 0.382683 -0.923880
v -0.050000 0.195090 -0.980785
v 0.050000 0.195090 -0.980785
v 0.050000 0.718543 0.066721
v 0.050000 0.718543 -0.066721
v 0.050000 -0.718543 -0.066721
v 0.050000 -0.718543 0.066721
v -0.050000 -0.718543 -0.066721
v -0.050000 -0.718543 0.066721
v -0.050000 0.718543 0.066721
v -0.050000 0.718543 -0.066721
vt 0.489722 0.612569
vt 0.755200 0.552362
vt 0.760695 0.585093
vt 0.492942 0.595623
vt 0.748071 0.519956
vt 0.493691 0.579791
vt 0.739118 0.487922
vt 0.492236 0.564937
vt 0.728195 0.456350
vt 0.488745 0.550923
vt 0.715210 0.425353
vt 0.483315 0.537569
vt 0.700118 0.395057
vt 0.475998 0.524545
vt 0.670523 0.371724
vt 0.466715 0.511054
vt 0.643944 0.350919
vt 0.455893 0.496541
vt 0.617485 0.334390
vt 0.444490 0.482007
vt 0.592211 0.320893
vt 0.433777 0.468723
vt 0.569155 0.308048
vt 0.423039 0.456925
vt 0.548447 0.294251
vt 0.411587 0.446630
vt 0.529580 0.278703
vt 0.399053 0.437789
vt 0.511933 0.260720
vt 0.385193 0.430390
vt 0.494912 0.239445
vt 0.369772 0.424488
vt 0.477948 0.213607
vt 0.352531 0.420237
vt 0.451651 0.200830
vt 0.332083 0.413206
vt 0.427015 0.185550
vt 0.309869 0.408045
vt 0.403451 0.166920
vt 0.285357 0.405029
vt 0.380481 0.143710
vt 0.257808 0.404572
vt 0.357586 0.114043
vt 0.226219 0.407185
vt 0.333784 0.074307
vt 0.190118 0.412937
vt 0.296170 0.055431
vt 0.148655 0.420359
vt 0.256932 0.036943
vt 0.102614 0.425571
vt 0.216381 0.018930
vt 0.053247 0.425225
vt 0.174760 0.001143
vt 0.366834 0.802478
vt 0.770213 0.762939
vt 0.770213 0.802478
vt 0.409993 0.760843
vt 0.770007 0.724732
vt 0.439989 0.725451
vt 0.769219 0.688201
vt 0.460935 0.693815
vt 0.767552 0.652908
vt 0.437419 0.527050
vt 0.422417 0.509272
vt 0.148460 0.531875
vt 0.089450 0.548317
vt 0.475212 0.664828
vt 0.764770 0.618588
vt 0.484437 0.637880
vt 0.859639 0.396264
vt 0.815015 0.343237
vt 0.896044 0.291010
vt 0.408055 0.000111
vt 0.660269 0.278128
vt 0.401079 0.544679
vt 0.187380 0.602842
vt 0.396013 0.534307
vt 0.171498 0.647072
vt 0.226005 0.717452
vt 0.929929 0.221717
vt 0.968841 0.080911
vt 0.933818 0.206914
vt 0.935090 0.216643
vt 0.944807 0.320892
vt 0.935021 0.213284
vt 0.999889 0.140724
vt 0.000111 0.421676
vt 0.770435 0.204965
vt 0.771761 0.178308
vt 0.777087 0.153367
vt 0.786164 0.130462
vt 0.797361 0.099757
vt 0.814566 0.071420
vt 0.837424 0.046424
vt 0.865657 0.025587
vt 0.899505 0.009648
vt 0.940826 0.000111
vt 0.999889 0.458432
vt 0.926702 0.434255
vt 0.780479 0.263734
vt 0.773282 0.233257
vt 0.792788 0.298635
vt 0.693773 0.302114
vn 0.0000 -0.0980 -0.9952
vn 0.0000 -0.2903 -0.9569
vn 0.0000 -0.4714 -0.8819
vn 0.0000 -0.6344 -0.7730
vn 0.0000 -0.7730 -0.6344
vn 0.0000 -0.8819 -0.4714
vn 0.0000 -0.9569 -0.2903
vn 0.0000 -0.9952 -0.0980
vn 0.0000 -0.9952 0.0980
vn 0.0000 -0.9569 0.2903
vn 0.0000 -0.8819 0.4714
vn 0.0000 -0.7730 0.6344
vn 0.0000 -0.6344 0.7730
vn 0.0000 -0.4714 0.8819
vn 0.0000 -0.2903 0.9569
vn 0.0000 -0.0980 0.9952
vn 0.0000 0.0980 0.9952
vn 0.0000 0.2903 0.9569
vn 0.0000 0.4714 0.8819
vn 0.0000 0.6344 0.7730
vn 0.0000 0.7730 0.6344
vn 0.0000 0.8819 0.4714
vn 0.0000 0.9569 0.2903
vn 0.0000 0.9952 0.0980
vn 0.0000 0.9952 -0.0980
vn 0.0000 0.9569 -0.2903
vn 0.0000 0.8819 -0.4714
vn 0.0000 0.7730 -0.6344
vn 0.0000 0.6344 -0.7730
vn 0.0000 0.4714 -0.8819
vn 1.0000 -0.0000 0.0000
vn 0.0000 0.2903 -0.9569
vn 0.0000 0.0980 -0.9952
vn -1.0000 0.0000 -0.0000
vn 0.0000 0.0000 1.0000
vn 0.0000 0.0000 -1.0000
vn 0.0000 1.0000 0.0000
vn 0.0000 -1.0000 0.0000
usemtl Material
s off
f 3/1/1 5/2/1 1/3/1
f 9/4/2 13/5/2 5/2/2
f 14/6/3 15/7/3 13/5/3
f 16/8/4 17/9/4 15/7/4
f 18/10/5 19/11/5 17/9/5
f 20/12/6 21/13/6 19/11/6
f 22/14/7 23/15/7 21/13/7
f 24/16/8 25/17/8 23/15/8
f 26/18/9 27/19/9 25/17/9
f 28/20/10 29/21/10 27/19/10
f 30/22/11 31/23/11 29/21/11
f 32/24/12 33/25/12 31/23/12
f 34/26/13 35/27/13 33/25/13
f 36/28/14 37/29/14 35/27/14
f 38/30/15 39/31/15 37/29/15
f 40/32/16 41/33/16 39/31/16
f 42/34/17 43/35/17 41/33/17
f 44/36/18 45/37/18 43/35/18
f 46/38/19 47/39/19 45/37/19
f 48/40/20 49/41/20 47/39/20
f 50/42/21 51/43/21 49/41/21
f 52/44/22 53/45/22 51/43/22
f 54/46/23 55/47/23 53/45/23
f 56/48/24 57/49/24 55/47/24
f 58/50/25 59/51/25 57/49/25
f 60/52/26 61/53/26 59/51/26
f 62/54/27 63/55/27 61/56/27
f 64/57/28 65/58/28 63/55/28
f 66/59/29 67/60/29 65/58/29
f 68/61/30 69/62/30 67/60/30
f 75/63/31 76/64/31 26/18/31
f 73/65/31 74/66/31 58/50/31
f 70/67/32 71/68/32 69/62/32
f 72/69/33 1/3/33 71/68/33
f 57/70/34 59/71/34 80/72/34
f 79/73/34 78/74/34 41/33/34
f 8/75/31 4/76/31 2/77/31
f 12/78/35 75/63/35 74/79/35
f 4/76/36 76/64/36 2/77/36
f 2/77/37 75/63/37 8/75/37
f 4/76/38 74/66/38 73/65/38
f 10/80/35 80/72/35 77/81/35
f 6/82/34 11/83/34 10/80/34
f 6/82/36 79/84/36 7/85/36
f 6/82/37 77/81/37 78/86/37
f 11/83/38 79/84/38 80/72/38
f 3/1/1 9/4/1 5/2/1
f 9/4/2 14/6/2 13/5/2
f 14/6/3 16/8/3 15/7/3
f 16/8/4 18/10/4 17/9/4
f 18/10/5 20/12/5 19/11/5
f 20/12/6 22/14/6 21/13/6
f 22/14/7 24/16/7 23/15/7
f 24/16/8 26/18/8 25/17/8
f 26/18/9 28/20/9 27/19/9
f 28/20/10 30/22/10 29/21/10
f 30/22/11 32/24/11 31/23/11
f 32/24/12 34/26/12 33/25/12
f 34/26/13 36/28/13 35/27/13
f 36/28/14 38/30/14 37/29/14
f 38/30/15 40/32/15 39/31/15
f 40/32/16 42/34/16 41/33/16
f 42/34/17 44/36/17 43/35/17
f 44/36/18 46/38/18 45/37/18
f 46/38/19 48/40/19 47/39/19
f 48/40/20 50/42/20 49/41/20
f 50/42/21 52/44/21 51/43/21
f 52/44/22 54/46/22 53/45/22
f 54/46/23 56/48/23 55/47/23
f 56/48/24 58/50/24 57/49/24
f 58/50/25 60/52/25 59/51/25
f 60/52/26 62/87/26 61/53/26
f 62/54/27 64/57/27 63/55/27
f 64/57/28 66/59/28 65/58/28
f 66/59/29 68/61/29 67/60/29
f 68/61/30 70/67/30 69/62/30
f 76/64/31 30/22/31 28/20/31
f 28/20/31 26/18/31 76/64/31
f 26/18/31 24/16/31 75/63/31
f 24/16/31 22/14/31 75/63/31
f 22/14/31 20/12/31 75/63/31
f 20/12/31 18/10/31 75/63/31
f 18/10/31 16/8/31 75/63/31
f 16/8/31 14/6/31 75/63/31
f 14/6/31 9/4/31 75/63/31
f 9/4/31 3/1/31 75/63/31
f 3/1/31 72/69/31 74/79/31
f 75/63/31 3/1/31 74/79/31
f 72/69/31 70/67/31 74/79/31
f 70/67/31 68/61/31 74/79/31
f 68/61/31 66/59/31 74/79/31
f 66/59/31 64/57/31 74/79/31
f 64/57/31 62/54/31 74/79/31
f 74/66/31 62/87/31 60/52/31
f 60/52/31 58/50/31 74/66/31
f 58/50/31 56/48/31 73/65/31
f 56/48/31 54/46/31 73/65/31
f 54/46/31 52/44/31 73/65/31
f 52/44/31 50/42/31 73/65/31
f 50/42/31 48/40/31 73/65/31
f 48/40/31 46/38/31 73/65/31
f 46/38/31 44/36/31 73/65/31
f 44/36/31 42/34/31 73/65/31
f 42/34/31 40/32/31 76/64/31
f 73/65/31 42/34/31 76/64/31
f 40/32/31 38/30/31 76/64/31
f 38/30/31 36/28/31 76/64/31
f 36/28/31 34/26/31 76/64/31
f 34/26/31 32/24/31 76/64/31
f 32/24/31 30/22/31 76/64/31
f 70/67/32 72/69/32 71/68/32
f 72/69/33 3/1/33 1/3/33
f 67/88/34 69/89/34 80/72/34
f 69/89/34 71/90/34 80/72/34
f 71/90/34 1/91/34 80/72/34
f 1/91/34 5/92/34 77/81/34
f 80/72/34 1/91/34 77/81/34
f 5/92/34 13/93/34 77/81/34
f 13/93/34 15/94/34 77/81/34
f 15/94/34 17/95/34 77/81/34
f 17/95/34 19/96/34 77/81/34
f 19/96/34 21/97/34 77/81/34
f 80/72/34 79/84/34 57/70/34
f 79/84/34 53/98/34 55/99/34
f 63/100/34 65/101/34 80/72/34
f 65/101/34 67/88/34 80/72/34
f 59/71/34 61/102/34 80/72/34
f 61/102/34 63/100/34 80/72/34
f 55/99/34 57/70/34 79/84/34
f 78/74/34 77/103/34 25/17/34
f 77/103/34 21/13/34 23/15/34
f 25/17/34 77/103/34 23/15/34
f 25/17/34 27/19/34 78/74/34
f 27/19/34 29/21/34 78/74/34
f 29/21/34 31/23/34 78/74/34
f 31/23/34 33/25/34 78/74/34
f 33/25/34 35/27/34 78/74/34
f 35/27/34 37/29/34 78/74/34
f 37/29/34 39/31/34 78/74/34
f 39/31/34 41/33/34 78/74/34
f 41/33/34 43/35/34 79/73/34
f 43/35/34 45/37/34 79/73/34
f 45/37/34 47/39/34 79/73/34
f 47/39/34 49/41/34 79/73/34
f 49/41/34 51/43/34 79/73/34
f 51/43/34 53/45/34 79/73/34
f 8/75/31 12/78/31 4/76/31
f 12/78/35 8/75/35 75/63/35
f 4/76/36 73/65/36 76/64/36
f 2/77/37 76/64/37 75/63/37
f 4/76/38 12/78/38 74/66/38
f 10/80/35 11/83/35 80/72/35
f 6/82/34 7/85/34 11/83/34
f 6/82/36 78/86/36 79/84/36
f 6/82/37 10/80/37 77/81/37
f 11/83/38 7/85/38 79/84/38
