# Blender v3.1.2 OBJ File: 'CheckCollider.blend'
# www.blender.org
mtllib BlankCube.mtl
o 立方体_立方体.001
v -0.500000 0.500000 -0.500000
v -0.500000 -0.400000 -0.400000
v -0.500000 0.400000 -0.400000
v -0.500000 -0.500000 0.500000
v -0.500000 0.400000 0.400000
v -0.500000 -0.400000 0.400000
v 0.500000 0.500000 -0.500000
v 0.400000 -0.400000 -0.500000
v 0.400000 0.400000 -0.500000
v -0.500000 -0.500000 -0.500000
v -0.400000 0.400000 -0.500000
v -0.400000 -0.400000 -0.500000
v 0.500000 0.400000 0.400000
v 0.500000 0.400000 -0.400000
v 0.500000 -0.500000 0.500000
v 0.500000 -0.400000 -0.400000
v 0.500000 -0.400000 0.400000
v -0.400000 0.400000 0.500000
v 0.400000 0.400000 0.500000
v 0.500000 0.500000 0.500000
v 0.400000 -0.400000 0.500000
v -0.400000 -0.400000 0.500000
v 0.400000 -0.500000 -0.400000
v -0.400000 -0.500000 -0.400000
v 0.400000 -0.500000 0.400000
v -0.500000 0.500000 0.500000
v 0.400000 0.500000 0.400000
v -0.400000 0.500000 0.400000
v -0.400000 0.500000 -0.400000
v 0.400000 0.500000 -0.400000
v -0.400000 0.400000 -0.400000
v -0.400000 -0.400000 -0.400000
v 0.400000 0.400000 -0.400000
v 0.400000 -0.400000 0.400000
v 0.400000 0.400000 0.400000
v -0.400000 0.400000 0.400000
v 0.400000 -0.400000 -0.400000
v -0.400000 -0.400000 0.400000
v -0.400000 -0.500000 0.400000
v 0.500000 -0.500000 -0.500000
vt 0.625000 0.250000
vt 0.400000 0.225000
vt 0.600000 0.225000
vt 0.375000 0.000000
vt 0.600000 0.025000
vt 0.400000 0.025000
vt 0.625000 0.500000
vt 0.400000 0.475000
vt 0.600000 0.475000
vt 0.375000 0.250000
vt 0.600000 0.275000
vt 0.400000 0.275000
vt 0.600000 0.725000
vt 0.600000 0.525000
vt 0.375000 0.750000
vt 0.400000 0.525000
vt 0.400000 0.725000
vt 0.600000 0.975000
vt 0.600000 0.775000
vt 0.625000 0.750000
vt 0.375000 1.000000
vt 0.400000 0.775000
vt 0.400000 0.975000
vt 0.350000 0.525000
vt 0.150000 0.525000
vt 0.125000 0.500000
vt 0.125000 0.750000
vt 0.350000 0.725000
vt 0.875000 0.750000
vt 0.650000 0.725000
vt 0.850000 0.725000
vt 0.850000 0.525000
vt 0.650000 0.525000
vt 0.625000 0.250000
vt 0.375000 0.250000
vt 0.375000 0.250000
vt 0.625000 0.500000
vt 0.625000 0.500000
vt 0.375000 0.750000
vt 0.625000 0.750000
vt 0.375000 0.750000
vt 0.625000 0.750000
vt 0.625000 0.750000
vt 0.375000 0.500000
vt 0.375000 0.750000
vt 0.625000 0.500000
vt 0.625000 0.250000
vt 0.625000 0.000000
vt 0.625000 0.000000
vt 0.625000 1.000000
vt 0.625000 0.750000
vt 0.375000 0.500000
vt 0.375000 0.500000
vt 0.625000 0.500000
vt 0.375000 1.000000
vt 0.375000 1.000000
vt 0.375000 0.250000
vt 0.375000 0.000000
vt 0.375000 0.250000
vt 0.625000 0.250000
vt 0.375000 0.500000
vt 0.625000 1.000000
vt 0.625000 0.250000
vt 0.375000 0.000000
vt 0.375000 0.000000
vt 0.375000 1.000000
vt 0.375000 0.750000
vt 0.625000 1.000000
vt 0.625000 0.000000
vt 0.375000 0.500000
vt 0.625000 1.000000
vt 0.150000 0.725000
vt 0.875000 0.500000
vt 0.625000 1.000000
vt 0.375000 1.000000
vt 0.625000 0.000000
vn -1.0000 -0.0000 0.0000
vn -0.0000 0.0000 -1.0000
vn 1.0000 0.0000 0.0000
vn -0.0000 -0.0000 1.0000
vn 0.0000 -1.0000 -0.0000
vn -0.0000 1.0000 0.0000
usemtl None
s 1
f 1/1/1 2/2/1 3/3/1
f 4/4/1 5/5/1 6/6/1
f 7/7/2 8/8/2 9/9/2
f 10/10/2 11/11/2 12/12/2
f 13/13/3 14/14/3 7/7/3
f 15/15/3 16/16/3 17/17/3
f 18/18/4 19/19/4 20/20/4
f 4/21/4 21/22/4 22/23/4
f 23/24/5 24/25/5 10/26/5
f 4/27/5 25/28/5 15/15/5
f 26/29/6 27/30/6 28/31/6
f 7/7/6 29/32/6 30/33/6
f 31/34/4 2/35/4 32/36/4
f 31/34/5 9/37/5 33/38/5
f 34/39/2 13/40/2 17/41/2
f 34/39/1 19/42/1 35/43/1
f 34/39/1 23/44/1 25/45/1
f 31/34/4 30/46/4 29/47/4
f 35/43/1 30/46/1 33/38/1
f 36/48/3 29/47/3 28/49/3
f 36/50/2 27/51/2 35/43/2
f 37/52/6 17/41/6 16/53/6
f 35/43/5 14/54/5 13/40/5
f 33/38/4 16/53/4 14/54/4
f 38/55/2 25/45/2 39/56/2
f 37/52/4 24/57/4 23/44/4
f 32/36/3 39/58/3 24/57/3
f 31/34/3 12/59/3 11/60/3
f 37/52/1 9/37/1 8/61/1
f 32/36/6 8/61/6 12/59/6
f 38/55/2 5/62/2 36/50/2
f 36/48/5 3/63/5 31/34/5
f 32/36/6 6/64/6 38/65/6
f 36/50/3 22/66/3 38/55/3
f 34/39/6 22/66/6 21/67/6
f 36/50/5 19/42/5 18/68/5
f 3/3/1 5/5/1 26/69/1
f 1/1/1 10/10/1 2/2/1
f 3/3/1 26/69/1 1/1/1
f 6/6/1 2/2/1 10/10/1
f 4/4/1 26/69/1 5/5/1
f 6/6/1 10/10/1 4/4/1
f 9/9/2 11/11/2 1/1/2
f 7/7/2 40/70/2 8/8/2
f 9/9/2 1/1/2 7/7/2
f 12/12/2 8/8/2 40/70/2
f 10/10/2 1/1/2 11/11/2
f 12/12/2 40/70/2 10/10/2
f 16/16/3 40/70/3 14/14/3
f 40/70/3 7/7/3 14/14/3
f 20/20/3 15/15/3 17/17/3
f 20/20/3 17/17/3 13/13/3
f 20/20/3 13/13/3 7/7/3
f 15/15/3 40/70/3 16/16/3
f 21/22/4 15/15/4 19/19/4
f 15/15/4 20/20/4 19/19/4
f 26/71/4 4/21/4 22/23/4
f 26/71/4 22/23/4 18/18/4
f 26/71/4 18/18/4 20/20/4
f 4/21/4 15/15/4 21/22/4
f 24/25/5 39/72/5 4/27/5
f 40/70/5 15/15/5 25/28/5
f 40/70/5 25/28/5 23/24/5
f 24/25/5 4/27/5 10/26/5
f 40/70/5 23/24/5 10/26/5
f 4/27/5 39/72/5 25/28/5
f 29/32/6 1/73/6 28/31/6
f 1/73/6 26/29/6 28/31/6
f 26/29/6 20/20/6 27/30/6
f 27/30/6 20/20/6 30/33/6
f 20/20/6 7/7/6 30/33/6
f 7/7/6 1/73/6 29/32/6
f 31/34/4 3/63/4 2/35/4
f 31/34/5 11/60/5 9/37/5
f 34/39/2 35/43/2 13/40/2
f 34/39/1 21/67/1 19/42/1
f 34/39/1 37/52/1 23/44/1
f 31/34/4 33/38/4 30/46/4
f 35/43/1 27/51/1 30/46/1
f 36/48/3 31/34/3 29/47/3
f 36/50/2 28/74/2 27/51/2
f 37/52/6 34/39/6 17/41/6
f 35/43/5 33/38/5 14/54/5
f 33/38/4 37/52/4 16/53/4
f 38/55/2 34/39/2 25/45/2
f 37/52/4 32/36/4 24/57/4
f 32/36/3 38/65/3 39/58/3
f 31/34/3 32/36/3 12/59/3
f 37/52/1 33/38/1 9/37/1
f 32/36/6 37/52/6 8/61/6
f 38/55/2 6/75/2 5/62/2
f 36/48/5 5/76/5 3/63/5
f 32/36/6 2/35/6 6/64/6
f 36/50/3 18/68/3 22/66/3
f 34/39/6 38/55/6 22/66/6
f 36/50/5 35/43/5 19/42/5
