# Blender v3.2.0 OBJ File: ''
# www.blender.org
mtllib yuka4.mtl
o 立方体_立方体.002
v -13.234237 12.907124 38.815987
v 29.646502 12.907124 32.957989
v -14.515324 12.907124 -14.431206
v 40.728336 12.907124 -14.431209
v -13.234237 -14.714702 38.815987
v 13.106505 12.907124 40.812447
v 29.646502 -14.714702 32.957989
v 40.728336 12.907124 13.190619
v 40.728336 -14.714702 -14.431209
v 13.106503 12.907124 -14.431208
v -14.515324 -14.714702 -14.431206
v -13.234239 12.907124 9.975362
v 13.106504 12.907124 13.190619
v 13.106503 -14.714702 -14.431208
v 40.728336 -14.714702 13.190619
v 13.106505 -14.714702 42.031246
v -26.747942 -14.968776 48.984211
v -26.747942 12.653049 47.765411
v -41.118469 -14.714702 -14.431205
v -39.837387 12.907124 9.975363
v -41.118469 12.907124 -14.431205
v -39.837387 -14.714702 9.975363
v 13.106502 12.907124 -34.648689
v -14.515325 12.907124 -34.648689
v 40.728336 12.907124 -34.648689
v 40.728336 -14.714702 -34.648689
v -14.515325 -14.714702 -34.648689
v -41.118469 -14.714702 -34.648689
v -41.118469 12.907124 -34.648689
v 13.106502 -14.714702 -34.648689
vt 0.625000 0.125000
vt 0.500000 0.250000
vt 0.500000 0.125000
vt 0.625000 0.375000
vt 0.500000 0.500000
vt 0.500000 0.375000
vt 0.625000 0.750000
vt 0.625000 0.750000
vt 0.625000 0.750000
vt 0.750000 0.625000
vt 0.875000 0.750000
vt 0.750000 0.750000
vt 0.625000 0.625000
vt 0.750000 0.500000
vt 0.625000 0.500000
vt 0.875000 0.500000
vt 0.500000 0.500000
vt 0.500000 0.625000
vt 0.500000 0.625000
vt 0.625000 0.250000
vt 0.500000 0.000000
vt 0.500000 0.875000
vt 0.625000 1.000000
vt 0.500000 1.000000
vt 0.500000 0.750000
vt 0.750000 0.750000
vt 0.625000 0.000000
vt 0.625000 0.000000
vt 0.625000 0.625000
vt 0.500000 0.750000
vt 0.500000 0.750000
vt 0.625000 0.500000
vt 0.625000 0.750000
vt 0.500000 0.750000
vt 0.875000 0.625000
vt 0.625000 0.875000
vt 0.875000 0.750000
vt 0.500000 0.000000
vn -0.4806 -0.0387 -0.8761
vn -1.0000 0.0000 0.0000
vn 0.0000 -1.0000 -0.0000
vn 0.0000 1.0000 0.0000
vn -0.8723 0.0000 -0.4890
vn 0.1210 -0.0438 -0.9917
vn 0.9479 -0.0140 -0.3182
vn 0.9986 0.0000 -0.0524
vn -0.5521 0.0000 -0.8337
vn 0.0000 0.0000 1.0000
vn 1.0000 0.0000 0.0000
vn -0.4290 0.0000 -0.9033
vn 0.0756 0.0000 -0.9971
vn 0.9449 0.0000 -0.3273
vn 0.0117 -0.9999 -0.0108
vn -0.6004 -0.0353 -0.7989
vn -0.0111 0.9999 0.0102
usemtl 土
s off
f 6/1/1 7/2/1 16/3/1
f 8/4/2 9/5/2 15/6/2
f 21/7/3 24/8/3 3/9/3
f 13/10/3 1/11/3 12/12/3
f 10/13/3 12/12/3 3/9/3
f 8/14/3 10/13/3 4/15/3
f 2/16/3 13/10/3 8/14/3
f 4/15/2 26/17/2 9/5/2
f 9/5/4 30/18/4 14/19/4
f 2/20/5 15/6/5 7/2/5
f 5/21/6 6/1/6 16/3/6
f 22/22/7 18/23/7 17/24/7
f 21/7/8 22/22/8 19/25/8
f 1/11/3 20/26/3 12/12/3
f 3/9/3 20/26/3 21/7/3
f 5/21/9 18/27/9 1/28/9
f 15/6/4 14/19/4 7/2/4
f 23/29/10 27/30/10 30/18/10
f 24/8/10 28/31/10 27/30/10
f 25/32/10 30/18/10 26/17/10
f 10/13/3 25/32/3 4/15/3
f 19/25/11 29/33/11 21/7/11
f 14/19/4 27/30/4 11/34/4
f 11/34/4 28/31/4 19/25/4
f 3/9/3 23/29/3 10/13/3
f 6/1/12 2/20/12 7/2/12
f 8/4/2 4/15/2 9/5/2
f 21/7/3 29/33/3 24/8/3
f 13/10/3 6/35/3 1/11/3
f 10/13/3 13/10/3 12/12/3
f 8/14/3 13/10/3 10/13/3
f 2/16/3 6/35/3 13/10/3
f 4/15/2 25/32/2 26/17/2
f 9/5/4 26/17/4 30/18/4
f 2/20/5 8/4/5 15/6/5
f 5/21/13 1/28/13 6/1/13
f 22/22/14 20/36/14 18/23/14
f 21/7/8 20/36/8 22/22/8
f 1/11/15 18/37/15 20/26/15
f 3/9/3 12/12/3 20/26/3
f 5/21/16 17/38/16 18/27/16
f 19/25/4 22/22/4 11/34/4
f 22/22/17 17/38/17 5/21/17
f 5/21/4 16/3/4 14/19/4
f 16/3/4 7/2/4 14/19/4
f 22/22/4 5/21/4 11/34/4
f 9/5/4 14/19/4 15/6/4
f 14/19/4 11/34/4 5/21/4
f 23/29/10 24/8/10 27/30/10
f 24/8/10 29/33/10 28/31/10
f 25/32/10 23/29/10 30/18/10
f 10/13/3 23/29/3 25/32/3
f 19/25/11 28/31/11 29/33/11
f 14/19/4 30/18/4 27/30/4
f 11/34/4 27/30/4 28/31/4
f 3/9/3 24/8/3 23/29/3
